<svg width="208" height="35" viewBox="0 0 208 35" fill="none" xmlns="http://www.w3.org/2000/svg">
<path d="M0.15875 34V1.6H7.31875V34H0.15875ZM11.79 34V10.88H18.31V13.2C19.1633 12.3467 20.0433 11.68 20.95 11.2C21.8833 10.72 22.8567 10.48 23.87 10.48C24.83 10.48 25.6167 10.72 26.23 11.2C26.87 11.6533 27.35 12.2933 27.67 13.12C27.99 13.92 28.15 14.84 28.15 15.88V34H21.67V16.8C21.67 16.24 21.5767 15.8133 21.39 15.52C21.2033 15.2267 20.8567 15.08 20.35 15.08C20.0833 15.08 19.7633 15.16 19.39 15.32C19.0433 15.4533 18.6833 15.6533 18.31 15.92V34H11.79ZM37.0634 34.4C35.3568 34.4 34.0368 33.8 33.1034 32.6C32.1701 31.4 31.7034 29.6267 31.7034 27.28V17.72C31.7034 16.28 31.9034 15.0267 32.3034 13.96C32.7034 12.8667 33.3034 12.0133 34.1034 11.4C34.9034 10.7867 35.8901 10.48 37.0634 10.48C37.9168 10.48 38.7301 10.6533 39.5034 11C40.2768 11.32 40.9834 11.76 41.6234 12.32V1.6H48.1434V34H41.6234V32.2C40.9034 32.8933 40.1568 33.44 39.3834 33.84C38.6101 34.2133 37.8368 34.4 37.0634 34.4ZM39.9034 30.24C40.1168 30.24 40.3701 30.1867 40.6634 30.08C40.9834 29.9733 41.3034 29.8267 41.6234 29.64V15.04C41.3568 14.9067 41.0768 14.7867 40.7834 14.68C40.4901 14.5733 40.2101 14.52 39.9434 14.52C39.3568 14.52 38.9301 14.7733 38.6634 15.28C38.3968 15.76 38.2634 16.3467 38.2634 17.04V27.68C38.2634 28.16 38.3168 28.6 38.4234 29C38.5301 29.3733 38.7034 29.68 38.9434 29.92C39.1834 30.1333 39.5034 30.24 39.9034 30.24ZM56.2606 34.4C55.3273 34.4 54.5273 34.1733 53.8606 33.72C53.2206 33.24 52.7406 32.5867 52.4206 31.76C52.1006 30.9333 51.9406 30.0133 51.9406 29V10.88H58.4606V28.24C58.4606 28.8 58.554 29.24 58.7406 29.56C58.954 29.8533 59.314 30 59.8206 30C60.114 30 60.4206 29.9333 60.7406 29.8C61.0606 29.64 61.394 29.4667 61.7406 29.28V10.88H68.2206V34H61.7406V31.88C60.914 32.6533 60.034 33.2667 59.1006 33.72C58.194 34.1733 57.2473 34.4 56.2606 34.4ZM58.0606 8.32L60.5806 0.279998H67.2206L62.1806 8.32H58.0606ZM79.4569 34.4C77.4302 34.4 75.7369 33.9467 74.3769 33.04C73.0435 32.1333 71.9502 30.6533 71.0969 28.6L75.5369 26.64C75.9635 27.68 76.4569 28.5067 77.0169 29.12C77.6035 29.7067 78.2435 30 78.9369 30C79.4435 30 79.8169 29.8933 80.0569 29.68C80.3235 29.4667 80.4569 29.1733 80.4569 28.8C80.4569 28.1867 80.2169 27.6267 79.7369 27.12C79.2835 26.6133 78.4569 25.8667 77.2569 24.88L75.5769 23.48C74.3502 22.44 73.3769 21.44 72.6569 20.48C71.9635 19.4933 71.6169 18.28 71.6169 16.84C71.6169 15.5867 71.9369 14.48 72.5769 13.52C73.2435 12.56 74.1235 11.8133 75.2169 11.28C76.3102 10.7467 77.4835 10.48 78.7369 10.48C80.6302 10.48 82.2169 11 83.4969 12.04C84.7769 13.08 85.6702 14.5467 86.1769 16.44L81.9769 18.36C81.8169 17.8533 81.5902 17.3467 81.2969 16.84C81.0035 16.3333 80.6435 15.9067 80.2169 15.56C79.8169 15.2133 79.3769 15.04 78.8969 15.04C78.4702 15.04 78.1235 15.16 77.8569 15.4C77.6169 15.64 77.4969 15.96 77.4969 16.36C77.4969 16.8667 77.7769 17.4133 78.3369 18C78.9235 18.5867 79.7235 19.2933 80.7369 20.12L82.3769 21.56C83.0435 22.12 83.6969 22.72 84.3369 23.36C84.9769 24 85.4969 24.7067 85.8969 25.48C86.3235 26.2533 86.5369 27.1333 86.5369 28.12C86.5369 29.4533 86.2035 30.6 85.5369 31.56C84.8702 32.4933 83.9902 33.2 82.8969 33.68C81.8302 34.16 80.6835 34.4 79.4569 34.4ZM96.45 34.24C94.7167 34.24 93.37 33.9867 92.41 33.48C91.4767 32.9733 90.8367 32.24 90.49 31.28C90.1433 30.2933 89.97 29.1067 89.97 27.72V15.16H87.73V10.88H89.97V3.84H96.57V10.88H99.85V15.16H96.57V27.08C96.57 27.7467 96.7567 28.2267 97.13 28.52C97.53 28.8133 98.0233 28.96 98.61 28.96C98.9567 28.96 99.2767 28.9467 99.57 28.92C99.8633 28.8667 100.13 28.8267 100.37 28.8V33.92C100.023 33.9733 99.4767 34.04 98.73 34.12C97.9833 34.2 97.2233 34.24 96.45 34.24ZM103.511 34V10.88H110.031V14.72C110.777 13.3867 111.524 12.3733 112.271 11.68C113.017 10.96 113.924 10.6 114.991 10.6C115.204 10.6 115.391 10.6133 115.551 10.64C115.711 10.64 115.857 10.6667 115.991 10.72V17.2C115.697 17.0667 115.364 16.96 114.991 16.88C114.644 16.7733 114.271 16.72 113.871 16.72C113.124 16.72 112.431 16.92 111.791 17.32C111.151 17.72 110.564 18.2667 110.031 18.96V34H103.511ZM118.783 34V10.88H125.303V34H118.783ZM118.743 6.96V2.44H125.303V6.96H118.743ZM134.089 34.4C132.916 34.4 131.929 34.12 131.129 33.56C130.329 33 129.729 32.2933 129.329 31.44C128.929 30.56 128.729 29.6667 128.729 28.76C128.729 27.32 129.009 26.1067 129.569 25.12C130.156 24.1333 130.916 23.3067 131.849 22.64C132.782 21.9733 133.809 21.4133 134.929 20.96C136.049 20.48 137.156 20.0533 138.249 19.68V17.36C138.249 16.96 138.209 16.6133 138.129 16.32C138.049 16 137.916 15.76 137.729 15.6C137.542 15.4133 137.262 15.32 136.889 15.32C136.516 15.32 136.222 15.4 136.009 15.56C135.822 15.72 135.689 15.9467 135.609 16.24C135.529 16.5067 135.476 16.8133 135.449 17.16L135.289 18.84L129.209 18.6C129.342 15.8267 130.076 13.7867 131.409 12.48C132.769 11.1467 134.796 10.48 137.489 10.48C139.836 10.48 141.582 11.1333 142.729 12.44C143.902 13.72 144.489 15.3867 144.489 17.44V28.24C144.489 29.2 144.502 30.04 144.529 30.76C144.582 31.48 144.636 32.1067 144.689 32.64C144.769 33.1733 144.836 33.6267 144.889 34H139.049C138.969 33.3867 138.876 32.72 138.769 32C138.662 31.28 138.582 30.8533 138.529 30.72C138.262 31.68 137.756 32.5333 137.009 33.28C136.289 34.0267 135.316 34.4 134.089 34.4ZM136.409 30C136.676 30 136.916 29.9467 137.129 29.84C137.369 29.7333 137.582 29.5867 137.769 29.4C137.956 29.2133 138.116 29.0267 138.249 28.84V22.52C137.716 22.84 137.222 23.1733 136.769 23.52C136.316 23.84 135.929 24.2 135.609 24.6C135.289 25 135.036 25.44 134.849 25.92C134.689 26.3733 134.609 26.8933 134.609 27.48C134.609 28.2533 134.769 28.8667 135.089 29.32C135.409 29.7733 135.849 30 136.409 30ZM167.507 34V26.72H157.547V21.8L165.987 1.6H173.747V21.76H176.747V26.72H173.747V34H167.507ZM162.627 21.76H167.507V8.28L162.627 21.76ZM179.363 34V27.84H185.523V34H179.363ZM198.289 34.6C196.342 34.6 194.716 34.2133 193.409 33.44C192.102 32.64 191.116 31.5467 190.449 30.16C189.782 28.7733 189.449 27.16 189.449 25.32V10.64C189.449 8.74667 189.756 7.09333 190.369 5.68C191.009 4.24 191.982 3.12 193.289 2.32C194.596 1.52 196.262 1.12 198.289 1.12C200.316 1.12 201.969 1.52 203.249 2.32C204.556 3.12 205.516 4.24 206.129 5.68C206.769 7.09333 207.089 8.74667 207.089 10.64V25.32C207.089 27.1333 206.756 28.7467 206.089 30.16C205.422 31.5467 204.436 32.64 203.129 33.44C201.822 34.2133 200.209 34.6 198.289 34.6ZM198.289 28.64C198.929 28.64 199.382 28.44 199.649 28.04C199.942 27.6133 200.116 27.1333 200.169 26.6C200.249 26.04 200.289 25.56 200.289 25.16V10.8C200.289 10.3467 200.262 9.84 200.209 9.28C200.156 8.69333 199.982 8.18667 199.689 7.76C199.422 7.30667 198.956 7.08 198.289 7.08C197.622 7.08 197.142 7.30667 196.849 7.76C196.582 8.18667 196.422 8.69333 196.369 9.28C196.316 9.84 196.289 10.3467 196.289 10.8V25.16C196.289 25.56 196.329 26.04 196.409 26.6C196.489 27.1333 196.662 27.6133 196.929 28.04C197.222 28.44 197.676 28.64 198.289 28.64Z" fill="#555555"/>
</svg>
