<svg width="130" height="37" viewBox="0 0 130 37" fill="none" xmlns="http://www.w3.org/2000/svg">
<path d="M7.06859 36.16C6.80193 36.16 6.54859 36.1467 6.30859 36.12C6.09526 36.0933 5.89526 36.0533 5.70859 36C5.52193 35.7067 5.30859 35.4133 5.06859 35.12C4.82859 34.8533 4.69526 34.5333 4.66859 34.16C4.77526 34.0533 4.82859 33.92 4.82859 33.76C4.82859 33.68 4.81526 33.6 4.78859 33.52C4.78859 33.44 4.77526 33.36 4.74859 33.28C4.74859 33.2267 4.78859 33.2 4.86859 33.2C5.08193 33.2 5.17526 33.1067 5.14859 32.92C5.14859 32.76 5.20193 32.6267 5.30859 32.52L5.54859 32.56C5.78859 32.3733 6.09526 32.1067 6.46859 31.76C6.84193 31.4133 7.08193 31.1067 7.18859 30.84L7.70859 30.68C7.70859 30.68 7.68193 30.68 7.62859 30.68C7.60193 30.6533 7.62859 30.6267 7.70859 30.6L9.26859 29.8V29.56L10.1886 29.24L10.3886 29.4L10.5486 28.92L11.2686 28.76L11.3886 28.52L12.8686 27.96V27.88L13.2686 28.12L13.5086 27.72L15.1886 27.04L15.8286 27.08L15.6686 26.84C16.1219 26.6533 16.6286 26.44 17.1886 26.2C17.7753 25.9333 18.3353 25.8 18.8686 25.8C18.9486 25.8 19.0286 25.8 19.1086 25.8C19.1886 25.8 19.2686 25.8133 19.3486 25.84V25.4H19.3886C19.4419 25.4 19.5353 25.4133 19.6686 25.44C19.8019 25.4667 19.8153 25.4 19.7086 25.24C20.1619 25.1867 20.5619 25.0533 20.9086 24.84C21.2819 24.6267 21.6819 24.4533 22.1086 24.32L22.7486 22.96L22.5886 22.84L23.1486 21.6C23.1219 21.6 23.1086 21.6 23.1086 21.6V21.52C23.1086 21.4667 23.1086 21.4133 23.1086 21.36C23.1086 21.28 23.1219 21.2267 23.1486 21.2C23.1486 21.1733 23.1886 21.1467 23.2686 21.12C23.3486 21.0933 23.3886 21.0667 23.3886 21.04L23.1486 20.96V20.88C23.1486 20.7733 23.1753 20.6667 23.2286 20.56C23.2819 20.4267 23.3086 20.36 23.3086 20.36V19.84H23.5486C23.4419 19.4933 23.3886 19.0933 23.3886 18.64L23.7086 18.4L23.5886 18.44L23.3886 18.52V18.16C23.3886 17.9467 23.3753 17.7467 23.3486 17.56C23.3219 17.3467 23.2819 17.16 23.2286 17C23.3353 17.0267 23.4286 16.9733 23.5086 16.84C23.5886 16.7067 23.6019 16.6133 23.5486 16.56C23.5219 16.5333 23.4553 16.5333 23.3486 16.56C23.2686 16.5867 23.2019 16.5867 23.1486 16.56L23.3086 16.36C23.2286 16.1733 23.1353 15.9867 23.0286 15.8C22.9219 15.6133 22.9886 15.5067 23.2286 15.48L22.8286 14.96L22.9886 14.76L22.5086 14.32L22.4686 14.28C22.4686 14.2267 22.5219 14.1733 22.6286 14.12C22.7353 14.0667 22.8019 14.0133 22.8286 13.96L22.0286 13.04C22.1086 13.04 22.1486 12.9867 22.1486 12.88C22.1486 12.7467 22.1086 12.6133 22.0286 12.48C21.9486 12.32 21.8686 12.2 21.7886 12.12L21.3086 11.96V11.92C21.3086 11.84 21.2819 11.7467 21.2286 11.64C21.2019 11.5333 21.1753 11.4533 21.1486 11.4L20.7486 11.16L20.9886 11.08C20.6953 11.0267 20.4419 10.8667 20.2286 10.6C20.0153 10.3333 19.8019 10.0533 19.5886 9.76C19.4019 9.46666 19.1753 9.26667 18.9086 9.16C18.9353 9.16 18.9486 9.13333 18.9486 9.08C18.9486 9.02667 18.8953 8.97333 18.7886 8.92C18.7086 8.86667 18.6419 8.86667 18.5886 8.92C18.2686 8.70667 17.9619 8.45333 17.6686 8.16C17.4019 7.86667 17.1486 7.56 16.9086 7.24L16.4686 7.32C16.3619 7.26667 16.2953 7.2 16.2686 7.12C16.2419 7.01333 16.2019 6.93333 16.1486 6.88H15.6686V6.64L14.9486 6.32L15.0686 6.24C14.7753 6.26667 14.5086 6.2 14.2686 6.04C14.0286 5.85333 13.7486 5.74667 13.4286 5.72L13.5086 5.64C13.5086 5.56 13.4019 5.52 13.1886 5.52C12.9753 5.52 12.8419 5.50667 12.7886 5.48C12.8686 5.34667 12.7753 5.25333 12.5086 5.2C12.2686 5.12 12.0019 5.06667 11.7086 5.04C11.4153 4.98667 11.2153 4.96 11.1086 4.96C11.1086 4.74667 11.0686 4.64 10.9886 4.64C10.8819 4.64 10.7486 4.78667 10.5886 5.08C10.4553 5.37333 10.4286 5.58667 10.5086 5.72L9.90859 6.44C9.93526 6.46667 9.97526 6.49333 10.0286 6.52C10.1086 6.52 10.1219 6.53333 10.0686 6.56H9.86859C9.81526 6.96 9.76193 7.21333 9.70859 7.32C9.68193 7.4 9.52193 7.57333 9.22859 7.84L9.26859 8.28C9.18859 8.30667 9.10859 8.36 9.02859 8.44C8.94859 8.49333 8.86859 8.54667 8.78859 8.6H9.02859L8.78859 9.48H8.58859L8.02859 11.24L7.94859 11.16L7.82859 12.12L7.50859 12.2L7.74859 12.36L7.50859 12.44C7.53526 12.8933 7.48193 13.28 7.34859 13.6C7.21526 13.92 7.12193 14.3067 7.06859 14.76L6.82859 14.84L6.86859 15.28C6.70859 15.5467 6.60193 15.8533 6.54859 16.2C6.52193 16.52 6.48193 16.8267 6.42859 17.12L6.10859 17.44C6.16193 17.6533 6.18859 17.8267 6.18859 17.96C6.18859 18.2267 6.13526 18.4533 6.02859 18.64L5.70859 18.72L5.86859 19.36C5.76193 19.3867 5.65526 19.36 5.54859 19.28L5.30859 20.56C5.52193 20.7733 5.57526 20.92 5.46859 21C5.38859 21.0533 5.41526 21.12 5.54859 21.2L5.46859 21.76C5.44193 21.7333 5.40193 21.72 5.34859 21.72C5.26859 21.72 5.22859 21.8 5.22859 21.96C5.22859 22.0667 5.24193 22.1867 5.26859 22.32C5.29526 22.4267 5.30859 22.4933 5.30859 22.52H5.06859L5.14859 22.64C5.17526 22.7467 5.18859 22.8667 5.18859 23C5.21526 23.1333 5.22859 23.2667 5.22859 23.4C5.22859 23.96 5.09526 24.3733 4.82859 24.64L4.98859 25.24H4.94859C4.89526 25.24 4.82859 25.2267 4.74859 25.2C4.69526 25.1733 4.64193 25.1733 4.58859 25.2V25.32L4.90859 25.96H4.66859L4.74859 26.04V27.96C4.72193 27.9867 4.68193 27.96 4.62859 27.88C4.57526 27.7733 4.53526 27.7467 4.50859 27.8C4.48193 27.8267 4.46859 27.88 4.46859 27.96C4.46859 28.0667 4.50859 28.2133 4.58859 28.4C4.66859 28.56 4.72193 28.68 4.74859 28.76L4.42859 28.84L4.50859 28.92V29L4.74859 28.84V29.24L4.50859 29.32L4.74859 29.48C4.72193 29.5067 4.65526 29.52 4.54859 29.52C4.44193 29.4933 4.37526 29.48 4.34859 29.48V29.56H4.74859L4.50859 30.2C4.77526 30.4667 4.90859 30.7733 4.90859 31.12C4.90859 31.36 4.85526 31.5333 4.74859 31.64L4.90859 31.8C4.90859 31.8267 4.90859 31.84 4.90859 31.84C4.93526 31.8667 4.94859 31.88 4.94859 31.88C4.94859 31.96 4.90859 32.0267 4.82859 32.08C4.77526 32.1333 4.72193 32.1467 4.66859 32.12L4.98859 32.56L4.42859 32.64C4.21526 32.4533 4.05526 32.2 3.94859 31.88C3.84193 31.56 3.76193 31.2667 3.70859 31L3.94859 30.84C3.73526 30.68 3.58859 30.4 3.50859 30C3.45526 29.6 3.42859 29.1867 3.42859 28.76C3.42859 28.52 3.42859 28.2933 3.42859 28.08C3.45526 27.8667 3.46859 27.6933 3.46859 27.56L3.70859 27.48L3.62859 27.24L3.78859 26.52L3.54859 25.88L3.70859 25.72L3.62859 24.76C3.73526 24.8933 3.81526 24.8533 3.86859 24.64C3.92193 24.4267 3.96193 24.1733 3.98859 23.88C4.01526 23.5867 4.02859 23.4133 4.02859 23.36C3.97526 23.2267 3.98859 22.96 4.06859 22.56C4.14859 22.16 4.18859 21.6267 4.18859 20.96C4.26859 20.9867 4.32193 20.8667 4.34859 20.6C4.37526 20.3067 4.41526 19.9867 4.46859 19.64C4.52193 19.2667 4.58859 19.0133 4.66859 18.88L4.74859 19.04C4.74859 18.4267 4.82859 17.84 4.98859 17.28C5.17526 16.6933 5.28193 16.1067 5.30859 15.52C5.41526 15.6533 5.49526 15.6267 5.54859 15.44C5.60193 15.2267 5.64193 14.9867 5.66859 14.72C5.69526 14.4267 5.70859 14.2533 5.70859 14.2L5.78859 14.28L5.86859 14.12L6.22859 12.6H6.34859L6.66859 12.2L6.42859 11.48C6.45526 11.4267 6.52193 11.2133 6.62859 10.84C6.76193 10.44 6.90859 9.98666 7.06859 9.48C7.22859 8.94667 7.37526 8.48 7.50859 8.08C7.64193 7.65333 7.70859 7.4 7.70859 7.32L8.02859 7.24L8.14859 6.36L8.26859 6.32L8.06859 6.24H8.26859L8.38859 6.04C8.33526 5.8 8.36193 5.52 8.46859 5.2C8.57526 4.85333 8.72193 4.58666 8.90859 4.4C8.64193 4.29333 8.28193 4.22667 7.82859 4.2C7.40193 4.14667 6.92193 4.12 6.38859 4.12C5.72193 4.12 5.05526 4.14667 4.38859 4.2C3.74859 4.22667 3.22859 4.24 2.82859 4.24C2.53526 4.24 2.33526 4.21333 2.22859 4.16L2.10859 4.4L1.86859 4.32V4.48H0.588594C0.588594 4.50666 0.588594 4.52 0.588594 4.52C0.61526 4.52 0.628594 4.53333 0.628594 4.56C0.628594 4.66667 0.548594 4.72 0.388594 4.72C0.201927 4.72 0.108594 4.65333 0.108594 4.52L0.268594 4.16C1.12193 3.70667 1.73526 3.44 2.10859 3.36C2.48193 3.25333 2.64193 3.12 2.58859 2.96C2.80193 2.90667 2.98859 2.88 3.14859 2.88C3.22859 2.88 3.30859 2.89333 3.38859 2.92C3.46859 2.92 3.54859 2.93333 3.62859 2.96L3.94859 2.72L3.86859 2.56L4.98859 2.32L5.06859 2.56C5.30859 2.29333 5.61526 2.16 5.98859 2.16C6.25526 2.16 6.48193 2.21333 6.66859 2.32L7.14859 2C7.17526 2.16 7.36193 2.24 7.70859 2.24C7.97526 2.24 8.26859 2.22667 8.58859 2.2C8.90859 2.14666 9.20193 2.12 9.46859 2.12C9.68193 2.12 9.82859 2.13333 9.90859 2.16C9.96193 1.92 10.0819 1.66667 10.2686 1.4C10.4553 1.10667 10.6819 0.959998 10.9486 0.959998C11.0819 0.986664 11.1753 1.16 11.2286 1.48C11.2819 1.8 11.2419 1.92 11.1086 1.84L11.4286 2.32C11.5619 2.42666 11.7219 2.50666 11.9086 2.56C12.0953 2.58667 12.2819 2.6 12.4686 2.6C12.6019 2.6 12.7219 2.6 12.8286 2.6C12.9353 2.6 13.0286 2.58667 13.1086 2.56C13.0819 2.66667 13.1353 2.73333 13.2686 2.76C13.4019 2.78667 13.4819 2.74666 13.5086 2.64C14.3086 2.85333 15.0819 3.18667 15.8286 3.64C16.5753 4.06667 17.3219 4.4 18.0686 4.64L17.7886 4.72C18.1886 4.66667 18.5486 4.76 18.8686 5C19.2153 5.24 19.5486 5.50667 19.8686 5.8C20.1886 6.09333 20.5219 6.30667 20.8686 6.44L20.7486 6.96C20.9353 6.96 21.0953 6.89333 21.2286 6.76L21.4686 7.4C21.6286 7.48 21.7886 7.61333 21.9486 7.8C22.1353 7.98667 22.2953 8.01333 22.4286 7.88L23.3086 8.92L23.2286 9.08L23.9086 9.68C23.9086 10.0267 24.0553 10.2533 24.3486 10.36L24.6686 11.08L24.7486 11C24.9353 11.2667 25.1219 11.5867 25.3086 11.96C25.5219 12.3333 25.6286 12.6933 25.6286 13.04H25.8286L26.1486 13.96L26.0286 14.52L26.3486 15.08L26.2686 15.52L26.5886 15.8L26.4686 16.72C26.5486 16.96 26.5886 17.2133 26.5886 17.48C26.5886 17.7733 26.5486 17.92 26.4686 17.92C26.6019 17.9733 26.6686 18.08 26.6686 18.24C26.6686 18.3733 26.6019 18.5067 26.4686 18.64V19.84L26.0686 20.24H26.1086C26.1619 20.24 26.2153 20.2667 26.2686 20.32C26.3219 20.3467 26.3619 20.3733 26.3886 20.4C26.3353 20.88 26.2286 21.3467 26.0686 21.8C25.9086 22.2267 25.7219 22.6667 25.5086 23.12C25.6686 23.12 25.8286 23.12 25.9886 23.12C26.1753 23.0933 26.3353 23.0667 26.4686 23.04L26.6286 22.72L28.0686 22.32C28.0686 22.4533 28.1086 22.52 28.1886 22.52L27.2686 22.96C27.4553 23.04 27.4419 23.1333 27.2286 23.24C27.0153 23.32 26.7619 23.4 26.4686 23.48C26.2019 23.56 26.0286 23.6267 25.9486 23.68C25.6819 24 25.3086 24.2267 24.8286 24.36L24.7486 24.68L24.1886 25.08L24.2286 25.4C24.0953 25.9067 23.7886 26.2533 23.3086 26.44V26.6C23.1219 26.7867 22.9086 27 22.6686 27.24C22.4553 27.48 22.3219 27.7467 22.2686 28.04L21.7886 28.2L21.7086 28.6C21.5486 28.6267 21.4019 28.7333 21.2686 28.92C21.1353 29.08 21.0419 29.24 20.9886 29.4C20.9086 29.3733 20.8286 29.36 20.7486 29.36C20.6419 29.36 20.5886 29.4133 20.5886 29.52C20.6153 29.6267 20.4819 29.72 20.1886 29.8L19.8686 29.64V29.72L20.0286 30.2C19.9486 30.2267 19.8553 30.2267 19.7486 30.2C19.6419 30.1467 19.5486 30.1467 19.4686 30.2V30.36C19.5486 30.3867 19.6286 30.4 19.7086 30.4C19.7886 30.3733 19.8019 30.3733 19.7486 30.4H19.7086L18.7086 31V31.32C18.2286 31.4533 17.8419 31.64 17.5486 31.88C17.2819 32.12 17.0019 32.3467 16.7086 32.56C16.4153 32.7733 15.9753 32.9067 15.3886 32.96L15.3486 33.28L14.5486 33.48L14.6286 33.76C14.4686 33.8667 14.2286 33.96 13.9086 34.04C13.5886 34.1467 13.3219 34.2267 13.1086 34.28C12.8953 34.3333 12.8686 34.36 13.0286 34.36H13.0686C13.1219 34.36 13.0286 34.4133 12.7886 34.52C12.5486 34.6533 12.3619 34.7467 12.2286 34.8L12.0686 34.68L11.5886 34.88V35.04C11.1886 35.3867 10.5353 35.6533 9.62859 35.84C8.72193 36.0533 7.86859 36.16 7.06859 36.16ZM7.14859 34.08C7.09526 34 7.09526 33.8933 7.14859 33.76C7.30859 33.76 7.68193 33.6533 8.26859 33.44C8.88193 33.2267 9.54859 33 10.2686 32.76C10.9886 32.5467 11.5753 32.44 12.0286 32.44C12.0019 32.3867 11.9886 32.32 11.9886 32.24C11.9886 32.16 12.1219 32.08 12.3886 32L12.3086 32.12C12.2553 32.1733 12.3086 32.2 12.4686 32.2C12.5486 31.9333 12.8153 31.6933 13.2686 31.48C13.7219 31.2933 14.1619 31.1333 14.5886 31C15.0419 30.8933 15.2686 30.84 15.2686 30.84C15.1353 30.7867 15.0553 30.7067 15.0286 30.6L15.0686 30.52L15.6686 30.4V30.2H15.9886V29.96H16.4686C16.4953 29.8 16.6953 29.5733 17.0686 29.28C17.4686 28.96 17.8819 28.68 18.3086 28.44C18.7353 28.1733 19.0153 28.0667 19.1486 28.12C19.1486 27.9333 19.1619 27.7867 19.1886 27.68C19.2419 27.5467 19.3619 27.4533 19.5486 27.4C19.6019 27.4533 19.6819 27.5067 19.7886 27.56C19.8953 27.16 19.9886 26.92 20.0686 26.84C20.1486 26.7333 20.2419 26.68 20.3486 26.68C20.4553 26.68 20.5886 26.6267 20.7486 26.52L20.5486 26.44C20.6019 26.4133 20.6686 26.36 20.7486 26.28L20.6686 26.2L20.7486 26.04H20.6686C20.4819 26.2 20.2419 26.32 19.9486 26.4C19.6553 26.48 19.3886 26.52 19.1486 26.52L19.0686 26.76L18.4286 27.04L18.0686 26.92L17.9486 27.16C17.7619 27.2667 17.5753 27.3333 17.3886 27.36C17.2019 27.36 17.0019 27.36 16.7886 27.36V27.4C16.7886 27.5867 16.7353 27.6933 16.6286 27.72C16.5219 27.72 16.4019 27.72 16.2686 27.72C16.1353 27.72 16.0153 27.8267 15.9086 28.04L15.5886 27.96C15.4286 28.12 15.3086 28.2267 15.2286 28.28C15.1753 28.3067 15.0153 28.3333 14.7486 28.36L14.8686 28.04H14.7486C14.7219 28.2 14.6286 28.3867 14.4686 28.6C14.1219 28.6267 13.8153 28.7333 13.5486 28.92C13.3086 29.1067 13.0286 29.1867 12.7086 29.16L12.4686 29.48C12.1753 29.4533 11.9619 29.52 11.8286 29.68C11.6953 29.8133 11.5086 29.9333 11.2686 30.04C11.2419 29.96 11.2153 29.92 11.1886 29.92C11.1886 29.92 11.1619 29.9067 11.1086 29.88C11.1086 30.0933 11.0553 30.2133 10.9486 30.24C10.8686 30.2667 10.7619 30.36 10.6286 30.52L10.2286 30.4L10.1886 30.84C9.78859 30.92 9.44193 31.0933 9.14859 31.36C8.85526 31.6533 8.56193 31.92 8.26859 32.16C8.00193 32.4267 7.68193 32.5867 7.30859 32.64L7.06859 32.52C6.96193 32.7333 6.82859 32.92 6.66859 33.08C6.50859 33.24 6.40193 33.4533 6.34859 33.72C6.45526 33.7467 6.48193 33.7733 6.42859 33.8C6.40193 33.8533 6.37526 33.9333 6.34859 34.04C6.48193 34.04 6.61526 34.04 6.74859 34.04C6.88193 34.04 7.01526 34.0533 7.14859 34.08ZM32.8095 17.96C32.5695 17.96 32.3029 17.8667 32.0095 17.68L31.8895 17.64H31.8095C31.7829 17.6133 31.7562 17.6 31.7295 17.6C31.7295 17.5467 31.7429 17.5067 31.7695 17.48H31.5695L31.6095 17C31.7695 17 31.8629 16.96 31.8895 16.88L31.8095 16.84H31.9295V16.72C31.9295 16.56 31.9695 16.44 32.0495 16.36C32.1295 16.2533 32.2229 16.1467 32.3295 16.04C32.3829 16.0667 32.4362 16.08 32.4895 16.08C32.5695 16.08 32.6229 16.1067 32.6495 16.16C32.6229 16 32.6229 15.8533 32.6495 15.72L32.7695 15.76C32.8229 15.5467 32.9429 15.4133 33.1295 15.36C33.3429 15.28 33.5295 15.2 33.6895 15.12L33.7295 15.36L33.8095 15.32V15.2H34.0095C34.0629 15.04 34.1562 14.96 34.2895 14.96L34.3295 15.12C34.4362 15.0133 34.5562 14.96 34.6895 14.96C34.9029 15.04 34.9429 15.1733 34.8095 15.36C34.7562 15.3867 34.7029 15.4667 34.6495 15.6C34.5962 15.4667 34.5295 15.3867 34.4495 15.36L34.4095 15.64L34.3695 15.48H34.3295L34.4095 15.8C34.3295 15.8267 34.2762 15.8667 34.2495 15.92C34.2229 15.9733 34.1829 16.0267 34.1295 16.08C34.0762 16.1333 34.0229 16.1467 33.9695 16.12C33.9162 16.0933 33.8629 16.12 33.8095 16.2C33.8629 16.1733 33.9429 16.1733 34.0495 16.2C33.9695 16.2 33.9162 16.2133 33.8895 16.24L34.0495 16.28C33.9429 16.3867 33.8629 16.52 33.8095 16.68C33.7562 16.8133 33.7029 16.9467 33.6495 17.08H33.4495V17.32L33.5695 17.36C33.4895 17.44 33.3962 17.48 33.2895 17.48L33.3295 17.68C33.3029 17.7333 33.2362 17.8 33.1295 17.88C33.0495 17.9333 32.9429 17.96 32.8095 17.96ZM30.3295 30.04C30.1962 30.04 30.1029 29.9733 30.0495 29.84L29.8895 29.96L29.7295 29.84L29.8895 29.64L29.8095 29.48H29.7295V29.64L29.5295 29.6L29.4495 29.36C29.4495 29.36 29.4629 29.36 29.4895 29.36C29.5429 29.3333 29.5562 29.3067 29.5295 29.28H29.3295C29.3295 29.2267 29.3295 29.1733 29.3295 29.12C29.3562 29.04 29.3962 28.9867 29.4495 28.96C29.3162 28.8533 29.2495 28.6 29.2495 28.2C29.2495 27.7733 29.2495 27.5067 29.2495 27.4L29.3295 27.04H29.4895L29.3295 26.4C29.3295 26.3733 29.3695 26.3867 29.4495 26.44C29.5295 26.4667 29.5695 26.48 29.5695 26.48V26.28C29.5429 26.2267 29.4895 26.1733 29.4095 26.12C29.3562 26.04 29.3295 25.96 29.3295 25.88L29.3695 25.84C29.4762 25.6 29.5429 25.3467 29.5695 25.08C29.6229 24.8133 29.6762 24.56 29.7295 24.32L29.6095 24.24L29.6495 23.84C29.6762 23.7867 29.7029 23.7867 29.7295 23.84C29.7562 23.8667 29.7695 23.88 29.7695 23.88H29.9295C29.9029 23.8267 29.8629 23.7733 29.8095 23.72C29.7829 23.64 29.7695 23.5467 29.7695 23.44L29.8895 23.32C29.8362 23.2933 29.8095 23.2267 29.8095 23.12C29.8095 23.0133 29.8229 22.92 29.8495 22.84C29.8762 22.7333 29.9029 22.6667 29.9295 22.64L29.8895 22.52C30.0229 22.4667 30.0762 22.3467 30.0495 22.16C30.0495 21.9467 30.0629 21.76 30.0895 21.6C30.1429 21.4133 30.3162 21.3333 30.6095 21.36C30.5829 21.3067 30.5562 21.2533 30.5295 21.2C30.5029 21.1467 30.4629 21.1067 30.4095 21.08H30.3295V20.8L30.6895 20.4L30.6095 20.24L30.7295 20.16V20.12C30.7295 19.9867 30.7829 19.8933 30.8895 19.84C30.9962 19.76 31.1029 19.7067 31.2095 19.68L31.1695 19.56H31.3295L31.3695 19.72L31.3295 19.76H31.4495C31.4495 19.6533 31.4495 19.6 31.4495 19.6C31.4495 19.6 31.5429 19.5867 31.7295 19.56L31.8495 19.88C32.2229 19.9867 32.4629 20.1467 32.5695 20.36C32.7029 20.5733 32.8229 20.84 32.9295 21.16L33.0495 21.08V21.16C33.0495 21.3733 32.9562 21.5333 32.7695 21.64L32.7295 21.6C32.7562 21.68 32.7695 21.7467 32.7695 21.8C32.7695 21.8533 32.7029 21.9067 32.5695 21.96C32.5429 22.12 32.5029 22.2933 32.4495 22.48C32.3962 22.6667 32.3429 22.84 32.2895 23C32.2895 22.9467 32.2629 22.9467 32.2095 23C32.1562 23.0267 32.1562 23.0667 32.2095 23.12L32.0495 23.2H32.1695C32.1162 23.44 32.0229 23.68 31.8895 23.92C31.7562 24.16 31.7029 24.4 31.7295 24.64H31.4895L31.5295 24.92L31.6095 24.88C31.5829 24.96 31.5562 25.04 31.5295 25.12C31.5029 25.1733 31.4895 25.2533 31.4895 25.36H31.3695L31.4895 25.44H31.4495L31.4895 25.52L31.3695 25.88H31.2095L31.2895 26.2C31.2362 26.2533 31.1562 26.24 31.0495 26.16C31.0495 26.32 31.1162 26.4533 31.2495 26.56L31.0895 27.24H30.9295L31.0095 27.36L31.0895 27.28L31.0095 28.2V28.24H31.2895L31.3295 28.48C31.4629 28.4267 31.6095 28.3867 31.7695 28.36C31.9295 28.3333 32.0762 28.2933 32.2095 28.24L32.2895 28.08L32.5295 28.12V27.96L32.4495 27.92L32.7295 27.72V27.76L32.7695 27.64L32.8895 27.68C32.8895 27.6 32.9162 27.5467 32.9695 27.52C33.0229 27.4667 33.0629 27.3867 33.0895 27.28L33.2495 27.4L33.6095 27C33.6095 27 33.5695 26.9733 33.4895 26.92L33.5695 26.72L33.8095 26.64C33.7829 26.6133 33.7695 26.5733 33.7695 26.52C33.7695 26.4667 33.7962 26.4267 33.8495 26.4C33.9295 26.3467 33.9829 26.28 34.0095 26.2C33.9829 26.2 33.9695 26.1867 33.9695 26.16C33.9695 26.1067 33.9829 26.08 34.0095 26.08L34.2895 26.04C34.3162 25.9333 34.3295 25.84 34.3295 25.76C34.3295 25.6533 34.3429 25.5467 34.3695 25.44C34.3962 25.4133 34.4095 25.4267 34.4095 25.48C34.4362 25.5067 34.4495 25.5333 34.4495 25.56C34.5029 25.6133 34.5562 25.6133 34.6095 25.56V25.44L34.7295 25.4L34.4895 25.32L34.6895 25.28H34.6095V25.12C34.7429 25.04 34.8362 24.9067 34.8895 24.72C34.9695 24.5067 35.0229 24.3333 35.0495 24.2L35.1695 24.24V24L35.2895 23.96C35.2095 23.96 35.1962 23.9333 35.2495 23.88H35.4095C35.3829 23.5867 35.4495 23.3467 35.6095 23.16C35.7695 22.9467 35.8762 22.72 35.9295 22.48H36.0895V22.32H36.4495C36.4495 22.48 36.4229 22.56 36.3695 22.56C36.3429 22.56 36.3029 22.6133 36.2495 22.72L36.4095 23.12L36.3295 23.24L36.1695 23.16L36.2495 23.4L36.1295 23.32L36.1695 23.64L36.0895 23.6C36.0629 23.7067 35.9962 23.9333 35.8895 24.28C35.8095 24.6 35.7029 24.8 35.5695 24.88L35.4095 24.84C35.4095 24.8933 35.4229 24.9467 35.4495 25C35.4762 25.0533 35.5029 25.1067 35.5295 25.16L35.3295 25.56L35.1695 25.48C35.1962 25.72 35.1162 25.9867 34.9295 26.28C34.7429 26.5467 34.5829 26.7867 34.4495 27H34.2095C34.2095 27.1067 34.1962 27.2 34.1695 27.28C34.1429 27.36 34.1295 27.4667 34.1295 27.6L33.8495 27.72L34.0095 27.76L33.7295 27.88V27.92C33.7295 28.0267 33.6895 28.1333 33.6095 28.24C33.5562 28.32 33.5162 28.3867 33.4895 28.44L33.2495 28.4V28.68H33.0495C33.0495 28.8133 32.9962 28.92 32.8895 29C32.8895 28.9733 32.8629 28.96 32.8095 28.96C32.7829 28.9333 32.7562 28.9333 32.7295 28.96C32.7829 29.0133 32.7829 29.08 32.7295 29.16C32.6762 29.2133 32.6229 29.2533 32.5695 29.28L32.4495 29.24V29.4C32.2095 29.64 31.8762 29.7867 31.4495 29.84L31.4095 29.92L31.2095 30V29.84C31.0495 29.8667 30.9295 29.9067 30.8495 29.96C30.7962 30.0133 30.6629 30.04 30.4495 30.04L30.4095 29.92H30.3695L30.3295 30.04ZM31.2095 25.48L31.3695 25.56L31.4495 25.44L31.2095 25.48ZM44.108 29.36C43.9213 29.3867 43.6946 29.3067 43.428 29.12C43.1613 28.9067 42.9746 28.7333 42.868 28.6L42.908 28.24C42.8813 28.24 42.8546 28.2533 42.828 28.28C42.8013 28.3067 42.7746 28.32 42.748 28.32L42.908 27.32C42.9613 27.32 42.9746 27.2533 42.948 27.12C42.948 26.9867 42.948 26.9067 42.948 26.88L42.908 26.84L42.948 26.16H43.108L42.908 25.96L42.988 25.36L43.068 25.32L42.988 25.2L43.068 24.76L43.228 24.68C43.228 24.6267 43.2013 24.5733 43.148 24.52C43.1213 24.44 43.108 24.3733 43.108 24.32C43.108 24.2133 43.2013 24.0667 43.388 23.88L43.228 23.8L43.468 23.6L43.268 23.52C43.4013 23.4133 43.428 23.32 43.348 23.24C43.2946 23.1333 43.308 23.0267 43.388 22.92L43.668 22.52L43.468 22.32L43.508 22.08C43.6413 22.08 43.708 22.04 43.708 21.96C43.708 21.9067 43.6946 21.84 43.668 21.76C43.6413 21.68 43.628 21.6 43.628 21.52H43.668L43.708 21.6L43.828 20.8L43.908 20.76V20.16H44.108L43.988 19.72L43.948 19.76L43.108 21.12L42.868 21.16L42.548 21.6L42.748 21.68L42.628 21.88H42.308C42.3613 21.9867 42.388 22.0667 42.388 22.12C42.388 22.2267 42.3213 22.32 42.188 22.4C42.0546 22.4533 41.9613 22.4933 41.908 22.52L41.988 22.76L41.668 23.28L41.468 23.2C41.468 23.2 41.4546 23.2267 41.428 23.28C41.428 23.3333 41.4013 23.36 41.348 23.36L41.148 23.28L41.068 23.6L41.268 23.64C41.1613 23.7467 41.0813 23.84 41.028 23.92C40.9746 24 40.8413 24.04 40.628 24.04C40.6013 24.12 40.628 24.2 40.708 24.28C40.4946 24.5733 40.2546 24.8667 39.988 25.16C39.748 25.4533 39.4813 25.7067 39.188 25.92H39.068L38.748 26.24L38.588 26.16L38.508 26.44L37.748 26.76L37.668 26.96L37.388 26.88L37.228 27.12H37.068C36.428 27.12 35.8946 26.9467 35.468 26.6C35.388 26.44 35.348 26.2533 35.348 26.04C35.2946 26.04 35.2546 26.0667 35.228 26.12C35.2013 26.1467 35.1746 26.1733 35.148 26.2L34.908 25.2L35.028 24.96L34.948 24.88L34.988 24.56H35.108L35.428 23.12C35.4546 23.12 35.468 23.1333 35.468 23.16C35.4946 23.1867 35.5213 23.2 35.548 23.2C35.6013 23.2 35.628 23.16 35.628 23.08C35.628 23 35.6146 22.9467 35.588 22.92L35.508 22.96C35.5613 22.56 35.7613 22.2667 36.108 22.08C36.0546 22.0267 36.028 21.96 36.028 21.88C36.028 21.8 36.0413 21.7333 36.068 21.68C36.1213 21.6 36.1613 21.52 36.188 21.44L36.308 21.48V21.44L36.268 21.36L36.428 21.28C36.4546 21.28 36.4413 21.24 36.388 21.16C36.3613 21.08 36.4013 21.0933 36.508 21.2V20.92H36.748C36.828 20.8133 36.8946 20.6933 36.948 20.56C37.0013 20.4267 37.0546 20.2933 37.108 20.16H37.508L37.388 19.88L37.588 19.64L37.828 19.72L37.948 19.2L38.588 18.72L38.388 18.6L38.628 18.52L38.668 18.76C38.668 18.4667 38.788 18.2533 39.028 18.12H39.068L39.108 18.32L39.148 18.24L39.108 18.04L39.548 17.72L39.588 17.88C39.6146 17.6133 39.7613 17.4133 40.028 17.28C40.2946 17.12 40.5746 16.9733 40.868 16.84C41.1613 16.7067 41.3213 16.56 41.348 16.4L41.668 16.44C41.6946 16.4133 41.708 16.3733 41.708 16.32C41.7346 16.24 41.7213 16.2 41.668 16.2C41.9346 16.1733 42.2413 16.08 42.588 15.92H42.988L42.788 15.8L42.828 15.76C43.308 15.6267 43.8013 15.56 44.308 15.56C44.6546 15.56 44.9746 15.6667 45.268 15.88L46.068 16.2C46.0946 16.2267 46.068 16.24 45.988 16.24C45.9346 16.24 45.908 16.2667 45.908 16.32C45.908 16.3467 45.948 16.3867 46.028 16.44C46.108 16.4667 46.1746 16.48 46.228 16.48L46.268 16.36C46.2946 16.36 46.308 16.4133 46.308 16.52C46.3346 16.6 46.3613 16.6133 46.388 16.56L46.708 16.88H46.548L46.468 18.04H46.308L46.228 18.24L46.348 18.52C46.348 18.5467 46.3346 18.6 46.308 18.68C46.2813 18.7333 46.268 18.72 46.268 18.64V18.56L46.148 18.6C46.1746 18.6533 46.188 18.7333 46.188 18.84C46.188 18.92 46.1746 19.0133 46.148 19.12C46.148 19.2 46.1346 19.2933 46.108 19.4C46.0013 19.4 45.9346 19.4133 45.908 19.44L45.788 19.76C45.7613 19.8667 45.7746 19.9333 45.828 19.96C45.8813 19.96 45.908 19.9733 45.908 20L45.828 20.16C45.828 20.2667 45.828 20.3733 45.828 20.48C45.8546 20.5867 45.8546 20.7067 45.828 20.84H45.508L45.068 20.88C45.1746 21.04 45.2946 21.1733 45.428 21.28C45.5613 21.36 45.628 21.4 45.628 21.4C45.6813 21.4533 45.6946 21.5067 45.668 21.56C45.6146 21.6933 45.5613 21.8267 45.508 21.96C45.4546 22.0933 45.4013 22.2267 45.348 22.36L45.468 22.4C45.4946 22.4267 45.4813 22.44 45.428 22.44C45.4013 22.44 45.4013 22.4533 45.428 22.48L45.468 22.52C45.4946 22.5467 45.508 22.5867 45.508 22.64C45.508 22.7467 45.468 22.8533 45.388 22.96C45.308 23.0667 45.2413 23.1867 45.188 23.32H45.308C45.308 23.5333 45.2946 23.8267 45.268 24.2C45.2413 24.5467 45.1613 24.8 45.028 24.96H44.988V24.76H44.788L45.068 25.16C44.9613 25.5067 44.8946 25.88 44.868 26.28C44.8413 26.6533 44.8013 27.0267 44.748 27.4L45.028 27.76H45.068V27.48L45.308 27.32H45.508L45.588 27.6L45.668 27.12C45.668 27.0933 45.668 27.08 45.668 27.08C45.6946 27.08 45.708 27.08 45.708 27.08H45.788C45.8413 26.8933 45.8546 26.76 45.828 26.68C45.988 26.4667 46.1746 26.1867 46.388 25.84C46.628 25.4667 46.8546 25.1067 47.068 24.76C47.2813 24.3867 47.4146 24.0933 47.468 23.88C47.5213 23.88 47.5613 23.9067 47.588 23.96C47.6146 24.0133 47.6413 24.04 47.668 24.04C47.6946 24.04 47.6946 23.9867 47.668 23.88C47.668 23.7467 47.6413 23.6933 47.588 23.72C47.668 23.6133 47.7213 23.4933 47.748 23.36C47.7746 23.2 47.8413 23.12 47.948 23.12C48.0813 23.12 48.148 23.16 48.148 23.24C48.148 23.2933 48.1346 23.36 48.108 23.44C48.0813 23.4933 48.068 23.5467 48.068 23.6L48.028 24.44L47.788 24.64L47.868 24.68H47.908L47.788 24.76L47.908 24.88H47.788C47.788 25.0133 47.7613 25.1467 47.708 25.28C47.6813 25.4133 47.6413 25.5467 47.588 25.68L47.348 25.76L47.428 25.92L47.228 26.2L46.988 26.24L46.468 27.56L46.228 27.52L46.268 27.84L45.228 29.04L45.028 29L44.988 29.24L44.828 29.36H44.108ZM36.868 25.76H36.948L37.828 25.32C37.8813 25.3733 37.8946 25.4 37.868 25.4C37.8413 25.4 37.828 25.4 37.828 25.4C37.828 25.48 37.8546 25.5467 37.908 25.6C37.9613 25.6267 38.0013 25.64 38.028 25.64L37.948 25.24C38.0013 25.08 38.108 25.04 38.268 25.12L38.228 25.2L38.508 25.08H38.308C38.2813 25 38.308 24.96 38.388 24.96L39.028 24.8C39.0546 24.7733 39.0146 24.76 38.908 24.76C38.8013 24.7333 38.748 24.7067 38.748 24.68L38.988 24.56C39.2013 24.4533 39.3746 24.3333 39.508 24.2C39.6413 24.0667 39.708 24 39.708 24C39.7613 24.08 39.8413 24.12 39.948 24.12H39.988V23.6L40.268 23.32L40.428 23.36L40.388 23.16L40.708 23.04C40.7613 22.8 40.8813 22.6267 41.068 22.52C41.2546 22.3867 41.4013 22.24 41.508 22.08H41.428C41.4813 21.9467 41.588 21.8667 41.748 21.84C41.908 21.7867 42.0013 21.68 42.028 21.52L41.948 21.36L42.388 21L42.308 20.96C42.3613 20.9067 42.388 20.8533 42.388 20.8C42.4146 20.72 42.4813 20.6933 42.588 20.72L42.788 20.76V20.36L42.948 20.08H43.268C43.3213 19.92 43.268 19.84 43.108 19.84L43.668 19.08L43.908 19.2V19.12L43.668 19.04L43.828 18.8L43.988 18.76L44.028 18.72C43.948 18.72 43.9213 18.6933 43.948 18.64C43.9746 18.56 44.028 18.5333 44.108 18.56L44.148 18.24L44.348 18.16H44.268L44.348 17.96H44.628L44.548 17.36L44.628 17.28L44.508 17.16C44.4546 17.3467 44.3213 17.4533 44.108 17.48C43.8946 17.5067 43.708 17.52 43.548 17.52C43.6013 17.5467 43.6146 17.6 43.588 17.68C43.5613 17.7333 43.5213 17.7467 43.468 17.72L43.228 17.6H43.108L43.228 17.88L42.868 17.8L42.948 17.96H42.748V18.12L42.388 18.36C42.3613 18.36 42.2413 18.3467 42.028 18.32C41.8413 18.2933 41.8013 18.3333 41.908 18.44H41.988C41.988 18.5733 41.948 18.6267 41.868 18.6C41.788 18.5733 41.7346 18.56 41.708 18.56L41.788 18.6C41.2813 18.84 40.828 19.1867 40.428 19.64C40.4813 19.6667 40.468 19.7067 40.388 19.76C40.3346 19.8133 40.2813 19.8 40.228 19.72V19.96L40.148 19.88C40.148 20.0133 40.068 20.1333 39.908 20.24C39.748 20.32 39.6013 20.3867 39.468 20.44C39.388 20.6 39.2946 20.76 39.188 20.92C39.0813 21.08 38.9613 21.2 38.828 21.28L38.748 21.24L38.308 21.52V21.64C38.308 21.9067 38.228 22.1467 38.068 22.36C37.9346 22.5467 37.788 22.7467 37.628 22.96L37.508 22.84L37.388 23.36H37.108V23.88H36.748C36.7213 23.88 36.7213 23.9067 36.748 23.96C36.7746 24.0133 36.8146 24.0533 36.868 24.08C36.8413 24.2933 36.7746 24.5067 36.668 24.72C36.588 24.9067 36.5346 25.1067 36.508 25.32H36.708C36.6546 25.5333 36.7346 25.6267 36.948 25.6L36.868 25.76ZM36.948 24.12C36.948 24.1467 36.9213 24.1333 36.868 24.08V24.04L36.948 24.08V24.12ZM51.0142 33.52C50.8542 33.2267 50.6142 32.9733 50.2942 32.76C50.0009 32.5733 49.7609 32.2667 49.5742 31.84C49.4942 31.6533 49.4142 31.28 49.3342 30.72C49.2542 30.1333 49.2142 29.6133 49.2142 29.16C49.2142 28.76 49.2542 28.5067 49.3342 28.4C49.2542 28.3467 49.2009 28.2667 49.1742 28.16C49.1742 28.0267 49.1742 27.92 49.1742 27.84L49.5742 27.6C49.3876 27.5733 49.2676 27.5067 49.2142 27.4C49.1609 27.2667 49.1342 27.1333 49.1342 27C49.1342 26.8667 49.1342 26.7467 49.1342 26.64C49.1609 26.5333 49.1742 26.4267 49.1742 26.32C49.2809 26.1333 49.3342 25.9867 49.3342 25.88C49.3342 25.7467 49.2942 25.64 49.2142 25.56C49.1342 25.48 49.0942 25.3467 49.0942 25.16C49.0942 25.08 49.1209 24.9333 49.1742 24.72L49.3342 24.64C49.1476 24.4533 49.0942 24.24 49.1742 24C49.2809 24.1067 49.3342 24.1067 49.3342 24C49.3342 23.8667 49.3342 23.7867 49.3342 23.76C49.3076 23.7333 49.2809 23.52 49.2542 23.12C49.2542 22.72 49.2542 22.2667 49.2542 21.76C49.2542 21.2267 49.2542 20.76 49.2542 20.36C49.2542 19.9333 49.2542 19.7067 49.2542 19.68C49.2809 19.6 49.3476 19.4 49.4542 19.08C49.5876 18.76 49.5476 18.5867 49.3342 18.56L49.4942 18L49.3342 17.68L49.6542 17.52C49.7076 17.4667 49.7342 17.3867 49.7342 17.28C49.5476 16.9067 49.4276 16.6 49.3742 16.36C49.3476 16.12 49.3342 15.7867 49.3342 15.36C49.4409 15.36 49.4942 15.24 49.4942 15C49.4942 14.8133 49.4142 14.72 49.2542 14.72L49.3342 14.32C49.0676 14.2933 48.7876 14.2667 48.4942 14.24C48.2009 14.1867 47.9476 14.08 47.7342 13.92H48.1342C48.2676 13.6 48.4809 13.44 48.7742 13.44C48.8809 13.44 49.0142 13.4667 49.1742 13.52L49.2542 13.28C49.3076 13.2533 49.3609 13.24 49.4142 13.24C49.4676 13.2133 49.5209 13.2 49.5742 13.2C49.7076 13.2 49.8409 13.24 49.9742 13.32C50.1342 13.3733 50.2676 13.44 50.3742 13.52L50.4542 13.28C50.5342 13.4133 50.6542 13.4933 50.8142 13.52C50.9742 13.5467 51.1209 13.5467 51.2542 13.52L51.5742 14.08C51.6276 14.0267 51.7076 13.92 51.8142 13.76V13.92C52.0276 14.1333 52.1342 14.3733 52.1342 14.64C52.0276 14.72 51.9742 14.8 51.9742 14.88C51.9742 14.96 51.9876 15.04 52.0142 15.12C52.0676 15.2 52.0942 15.2933 52.0942 15.4C52.0942 15.56 52.0276 15.68 51.8942 15.76L51.9742 15.92L51.7342 16.08L51.8942 16.4C51.8676 16.56 51.7876 16.7067 51.6542 16.84C51.5476 16.9733 51.4676 17.12 51.4142 17.28L51.7342 17.36L51.5742 17.92L51.2542 18.08L51.4142 18.88L51.1742 19.12H51.4142V19.44L51.0942 19.6C51.2276 19.7067 51.2809 19.8267 51.2542 19.96C51.2542 20.0667 51.2542 20.1867 51.2542 20.32C51.1742 20.3467 51.1076 20.3333 51.0542 20.28C51.0276 20.2267 50.9876 20.2133 50.9342 20.24C51.0409 20.4533 51.0942 20.6933 51.0942 20.96C51.0942 21.2267 51.0542 21.48 50.9742 21.72C50.8942 21.96 50.8276 22.2133 50.7742 22.48L50.8542 22.4L50.9342 22.56L51.0142 23.2C50.9076 23.2267 50.8276 23.28 50.7742 23.36C50.7476 23.44 50.7209 23.52 50.6942 23.6L50.8542 23.76C50.6942 24.0267 50.7209 24.2133 50.9342 24.32C50.9609 24.3733 50.9742 24.44 50.9742 24.52C50.9742 24.7333 50.8809 24.9067 50.6942 25.04C50.7209 25.2267 50.7476 25.4533 50.7742 25.72C50.8276 25.9867 50.8542 26.24 50.8542 26.48C50.8542 26.5867 50.8542 26.6933 50.8542 26.8C50.8542 26.9067 50.8276 27.0133 50.7742 27.12C50.8542 27.2 50.8942 27.3067 50.8942 27.44C50.9209 27.5467 50.9342 27.6533 50.9342 27.76H51.0142V27.28C51.0676 27.36 51.1076 27.4 51.1342 27.4C51.1609 27.4 51.1742 27.3733 51.1742 27.32C51.1742 27.2667 51.1609 27.1867 51.1342 27.08C51.1076 26.9733 51.0942 26.9067 51.0942 26.88C51.1476 26.8267 51.2009 26.8267 51.2542 26.88C51.3076 26.9333 51.3342 26.9867 51.3342 27.04C51.4409 26.2933 51.5209 25.52 51.5742 24.72L51.8142 24.56C51.7609 24.4533 51.7342 24.3733 51.7342 24.32C51.7342 24.1867 51.7876 24.0533 51.8942 23.92C52.0276 23.7867 52.1076 23.6533 52.1342 23.52V23.44C52.1342 23.2533 52.2142 23.1467 52.3742 23.12C52.3476 23.0133 52.3209 22.9067 52.2942 22.8C52.2942 22.6933 52.2942 22.5867 52.2942 22.48C52.2942 22.1067 52.3476 21.8133 52.4542 21.6L52.7742 21.44L52.6142 20.96L52.7742 20.32L52.9342 20.4V20.32C52.8809 20.2133 52.8542 20.1333 52.8542 20.08C52.8542 19.92 52.8942 19.7467 52.9742 19.56C53.0809 19.3733 53.1742 19.2267 53.2542 19.12L53.0942 19.04C53.2809 19.0133 53.4009 18.84 53.4542 18.52C53.5076 18.1733 53.5342 17.8133 53.5342 17.44C53.5609 17.04 53.6276 16.7467 53.7342 16.56C53.8409 16.3733 53.9342 16.2667 54.0142 16.24C54.0942 16.2133 54.1476 16.16 54.1742 16.08C54.2276 16 54.2409 15.7867 54.2142 15.44C54.7476 15.04 55.1742 14.84 55.4942 14.84C55.8942 14.84 56.1876 15.0533 56.3742 15.48C56.5876 15.9067 56.7209 16.4267 56.7742 17.04C56.8542 17.6267 56.9076 18.2 56.9342 18.76C56.9609 19.32 56.9876 19.7333 57.0142 20L56.7742 20.56L57.0942 20.8V21.84H57.2542L57.1742 22.24C57.3342 22.4533 57.4142 22.6267 57.4142 22.76C57.4142 22.8133 57.4009 22.88 57.3742 22.96C57.3742 23.04 57.3609 23.1467 57.3342 23.28C57.6809 23.7067 57.8542 24.08 57.8542 24.4C57.8542 24.48 57.8542 24.56 57.8542 24.64C57.8542 24.72 57.8409 24.8 57.8142 24.88L58.2142 25.04L58.6142 25.76L58.4542 26.16H58.5342L58.7742 26C58.8542 26.24 59.0142 26.4533 59.2542 26.64C59.4676 26.5867 59.7342 26.5333 60.0542 26.48C60.3742 26.4267 60.5342 26.2667 60.5342 26V25.92L60.9342 25.68L60.8542 25.36L61.1742 24.88L61.4142 25.04H61.4942L61.4142 24.72L61.5742 24.48C61.5209 24.4267 61.5476 24.3067 61.6542 24.12C61.7876 23.9067 61.9342 23.7067 62.0942 23.52C62.2542 23.3067 62.3476 23.1733 62.3742 23.12L62.6142 23.04C62.6142 22.7467 62.6676 22.5067 62.7742 22.32H62.8142C63.0276 22.32 63.1342 22.4267 63.1342 22.64C63.1342 22.7467 63.1076 22.88 63.0542 23.04C63.0276 23.1733 62.9876 23.28 62.9342 23.36L62.6142 23.44L62.8542 23.52L62.5342 24.16L62.2142 24C62.2409 24.5067 62.1742 24.8933 62.0142 25.16C61.8542 25.4267 61.6942 25.6667 61.5342 25.88C61.3742 26.0667 61.3076 26.32 61.3342 26.64H61.0942L60.5342 27.44L60.2942 27.28L59.8942 27.68L59.8142 27.44C59.7342 27.6 59.6142 27.68 59.4542 27.68C59.3742 27.68 59.2542 27.6533 59.0942 27.6C59.0676 27.4667 59.0276 27.3867 58.9742 27.36C58.9209 27.3333 58.8276 27.3067 58.6942 27.28L58.4542 27.44C58.0542 27.3067 57.7076 27.0667 57.4142 26.72C57.1476 26.3733 56.9076 26.0267 56.6942 25.68L56.9342 25.6L56.6142 25.44L56.5342 24.96L56.1342 24.64L56.2942 24.4C56.0809 24.3467 55.9342 24.2267 55.8542 24.04C55.7742 23.8533 55.7342 23.6533 55.7342 23.44C55.7342 23.3067 55.7342 23.2 55.7342 23.12C55.7609 23.0133 55.7876 22.9067 55.8142 22.8L55.4942 22.56C55.4142 22.2933 55.3876 22.0267 55.4142 21.76C55.1742 21.7067 55.0276 21.6 54.9742 21.44C54.9209 21.2533 54.8542 21.0667 54.7742 20.88L55.0142 20.56C54.9876 20.5067 54.9342 20.5067 54.8542 20.56C54.7742 20.5867 54.7209 20.6133 54.6942 20.64C54.6676 20.4 54.6009 20.1467 54.4942 19.88C54.4142 19.6133 54.2942 19.3867 54.1342 19.2L53.6542 19.36L53.4942 19.76C53.5742 19.8133 53.6142 19.9067 53.6142 20.04C53.6409 20.1467 53.6542 20.24 53.6542 20.32L53.1742 20.48C53.2276 20.5867 53.2676 20.7067 53.2942 20.84C53.3476 20.9467 53.3876 21.0667 53.4142 21.2L53.0942 21.36C53.1742 21.7067 53.2009 22 53.1742 22.24L52.8542 22.64C52.9342 22.72 52.9742 22.8267 52.9742 22.96C52.9742 23.1467 52.9209 23.3467 52.8142 23.56C52.7076 23.7733 52.6142 23.92 52.5342 24C52.6142 24.0533 52.6542 24.2 52.6542 24.44C52.6542 24.6267 52.6276 24.84 52.5742 25.08C52.5209 25.2933 52.4809 25.4667 52.4542 25.6H52.2142V25.68L52.4542 25.84C52.3209 26.0533 52.2542 26.2933 52.2542 26.56C52.2542 26.8267 52.2409 27.0933 52.2142 27.36C52.1876 27.6 52.0542 27.7867 51.8142 27.92C51.8676 28.1867 51.9076 28.4667 51.9342 28.76C51.9609 29.0267 51.9742 29.3067 51.9742 29.6C51.9476 29.6267 51.9076 29.6133 51.8542 29.56C51.8276 29.5067 51.8142 29.4667 51.8142 29.44L51.6542 29.76C51.7609 30.2667 51.8142 30.7467 51.8142 31.2C51.8142 31.68 51.7609 32.1333 51.6542 32.56C51.7876 32.8533 51.8676 33.1467 51.8942 33.44L51.0142 33.52ZM94.8714 35.76C94.9247 36.0267 94.7914 36.24 94.4714 36.4C94.1514 36.56 93.7914 36.68 93.3914 36.76C92.9914 36.84 92.6847 36.88 92.4714 36.88L92.3514 36.56C92.0581 36.7467 91.7247 36.84 91.3514 36.84C91.1114 36.84 90.7781 36.8133 90.3514 36.76C89.9247 36.7067 89.5647 36.64 89.2714 36.56C89.0047 36.5067 88.9781 36.48 89.1914 36.48C89.1114 36.48 88.9781 36.44 88.7914 36.36C88.6314 36.3067 88.5914 36.24 88.6714 36.16L86.3114 35.76L86.2714 35.44L85.6714 35.56V35.24C85.5647 35.32 85.4314 35.36 85.2714 35.36C84.9781 35.36 84.7114 35.2133 84.4714 34.92L84.3914 35.12L83.7514 35.04L83.5914 34.8H82.9514L82.5514 34.4C82.5247 34.4267 82.3114 34.4 81.9114 34.32C81.5114 34.2667 81.1914 34.2133 80.9514 34.16L80.8714 33.8L79.8314 33.76L79.9114 33.68C79.9114 33.5733 79.7381 33.5067 79.3914 33.48C79.0447 33.4533 78.8314 33.44 78.7514 33.44L78.6714 33.12C78.5114 33.1733 78.3914 33.2 78.3114 33.2C77.9914 33.2 77.6581 33.08 77.3114 32.84L76.5514 33.8C76.6047 33.6667 76.5514 33.6267 76.3914 33.68C76.2581 33.76 76.2447 33.8267 76.3514 33.88L75.5914 34.4L75.4314 34.84C75.2447 34.8667 74.9914 35.0133 74.6714 35.28C74.3781 35.5467 74.1381 35.7333 73.9514 35.84C73.8714 35.68 73.7781 35.6133 73.6714 35.64C73.5647 35.6667 73.5114 35.7067 73.5114 35.76C73.5114 35.8133 73.5514 35.8533 73.6314 35.88H73.8314C73.7514 35.9067 73.6847 35.9067 73.6314 35.88H73.1114L72.9114 36.08L72.1914 35.76L72.2714 35.96C72.1914 35.9867 72.1114 36 72.0314 36C71.9514 36.0267 71.8714 36.04 71.7914 36.04C71.2847 36.04 70.7247 35.84 70.1114 35.44C69.4981 35.0667 69.0714 34.68 68.8314 34.28L69.0314 34.2L68.5914 33.8C68.6181 33.72 68.6714 33.68 68.7514 33.68C68.8314 33.68 68.9114 33.7333 68.9914 33.84C69.0714 33.9467 69.1247 33.9333 69.1514 33.8L69.9514 34.28C69.9514 34.4667 69.9914 34.64 70.0714 34.8L71.4714 35.12V35.24C71.6314 35.08 71.8447 35 72.1114 35C72.3514 35 72.5781 35.0667 72.7914 35.2C73.4047 34.96 73.9914 34.6 74.5514 34.12C75.1381 33.64 75.5247 33.0667 75.7114 32.4L75.1914 31.88H74.3514L74.2714 31.68L72.8314 31.16C72.8047 31.16 72.7781 31.16 72.7514 31.16C72.7247 31.1867 72.6847 31.2 72.6314 31.2C72.5247 31.2 72.4181 31.16 72.3114 31.08C72.2047 31 72.1647 30.8933 72.1914 30.76C72.1381 30.8133 72.0181 30.84 71.8314 30.84C71.5914 30.84 71.3647 30.8133 71.1514 30.76L70.9914 30.32L70.3914 30.44L70.2714 30.92C69.8447 30.8933 69.2847 30.7467 68.5914 30.48C67.8981 30.1867 67.2314 29.8533 66.5914 29.48C65.9247 29.1067 65.4181 28.7867 65.0714 28.52L65.1514 28.04L65.5514 27.88V27.24L65.8714 26.76H66.1914L66.5914 26.12L68.2714 26.6L68.5914 27.08C68.5114 27.0533 68.6447 27.08 68.9914 27.16C69.3114 27.24 69.6447 27.3467 69.9914 27.48C70.3381 27.6133 70.5114 27.7467 70.5114 27.88C70.5914 27.8267 70.7114 27.8 70.8714 27.8C71.0581 27.8 71.2314 27.8667 71.3914 28C71.5781 28.1067 71.7514 28.2267 71.9114 28.36H72.2714C72.4314 28.52 72.8181 28.68 73.4314 28.84L73.5114 29.08V29L73.6314 28.96L75.9514 30C75.9247 30.1867 75.9381 30.28 75.9914 30.28C76.0714 30.28 76.1247 30.1867 76.1514 30L76.9514 30.36C76.9514 29.9867 76.9647 29.8267 76.9914 29.88C77.0181 29.9333 77.0847 29.9067 77.1914 29.8L77.0714 29.76C77.0181 29.7067 77.0047 29.68 77.0314 29.68C77.0581 29.6533 77.0847 29.6533 77.1114 29.68L77.3914 29.16L77.3114 28.84L77.9114 27.64L77.8314 27.4L78.3514 25.56L78.6314 25.48L78.4714 25.4C78.4447 25.3467 78.4314 25.28 78.4314 25.2C78.4314 24.9867 78.4847 24.7867 78.5914 24.6C78.7247 24.3867 78.8447 24.2267 78.9514 24.12C78.8714 24.12 78.8314 24.08 78.8314 24C78.8314 23.76 78.9114 23.64 79.0714 23.64L78.9514 23.08L77.5914 24.2H77.2714L77.3114 24.36C77.1247 24.5467 76.8847 24.72 76.5914 24.88C76.2981 25.0133 76.0047 25.08 75.7114 25.08V25.4C75.4447 25.4267 75.1914 25.5067 74.9514 25.64C74.7114 25.7733 74.4447 25.8533 74.1514 25.88C74.0981 25.88 74.0581 25.84 74.0314 25.76C74.0314 25.6533 74.0314 25.5867 74.0314 25.56L75.3114 24.84L75.2314 24.76L75.5914 24.52L75.6314 24.76V24.6C75.8447 24.3867 76.0847 24.16 76.3514 23.92C76.6181 23.6533 76.8981 23.48 77.1914 23.4L77.3114 23.72C77.4447 23.48 77.5247 23.28 77.5514 23.12C77.5781 22.9333 77.6047 22.84 77.6314 22.84C77.6847 22.84 77.7514 22.9333 77.8314 23.12V22.68C77.8314 22.6267 77.8714 22.64 77.9514 22.72C78.0581 22.7733 78.1247 22.8133 78.1514 22.84C78.1514 22.6533 78.2047 22.4933 78.3114 22.36C78.4181 22.2 78.5647 22.1067 78.7514 22.08C79.0447 21.7333 79.2581 21.3467 79.3914 20.92C79.5247 20.4667 79.6447 20.04 79.7514 19.64C79.8847 19.2133 80.0447 18.9067 80.2314 18.72L79.9914 18.64C79.9647 18.5067 79.9914 18.2533 80.0714 17.88C80.1514 17.48 80.2581 17.2667 80.3914 17.24C80.3647 17.1333 80.3514 17.04 80.3514 16.96C80.3514 16.8533 80.3514 16.7467 80.3514 16.64C80.3514 15.9733 80.4181 15.2933 80.5514 14.6C80.7114 13.9067 80.8181 13.2267 80.8714 12.56C80.9247 12.5867 80.9781 12.6 81.0314 12.6C81.1114 12.5733 81.1647 12.5333 81.1914 12.48L80.9514 12.04H80.9914C81.1781 12.04 81.2981 11.9467 81.3514 11.76L81.0314 11.08L81.2714 10.8C81.2981 10.8 81.3114 10.84 81.3114 10.92C81.3114 10.9733 81.3247 10.9867 81.3514 10.96C81.3514 10.9333 81.3514 10.92 81.3514 10.92C81.3781 10.8933 81.3914 10.8667 81.3914 10.84C81.3914 10.6 81.2981 10.48 81.1114 10.48L81.3514 8.8L81.5114 8.64V7.76L81.6714 7.84V7.72C81.6714 7.61333 81.6447 7.49333 81.5914 7.36C81.5647 7.2 81.5514 7.06667 81.5514 6.96C81.5514 6.77333 81.6314 6.66667 81.7914 6.64C81.7647 6.32 81.7247 6 81.6714 5.68C81.6447 5.36 81.6447 5.04 81.6714 4.72C81.4847 4.74667 81.2581 4.90667 80.9914 5.2C80.7514 5.49333 80.5247 5.81333 80.3114 6.16C80.1247 6.48 79.9914 6.72 79.9114 6.88C79.8847 6.90666 79.8447 6.89333 79.7914 6.84C79.7381 6.78667 79.7114 6.74667 79.7114 6.72L79.9914 6.16L79.8314 6.08C80.1247 5.76 80.3381 5.38667 80.4714 4.96C80.6314 4.50667 80.7647 4.08 80.8714 3.68L81.1114 3.48L81.1914 3.04C81.4314 2.90666 81.6714 2.64 81.9114 2.24C82.1514 1.81333 82.3647 1.46667 82.5514 1.2L83.4314 1.28L83.5914 1.04L84.6314 1.6L85.2714 2.72L85.8314 2.44L86.7114 2.96V3.04L87.1114 2.88C87.3247 3.06667 87.5914 3.24 87.9114 3.4C88.2581 3.56 88.4447 3.62667 88.4714 3.6C88.7647 3.73333 88.9914 3.94667 89.1514 4.24C89.3381 4.50667 89.5247 4.77333 89.7114 5.04L89.7514 4.84V4.96C89.9381 5.14666 90.0581 5.37333 90.1114 5.64C90.1914 5.88 90.2314 6.13333 90.2314 6.4C90.2581 6.37333 90.2847 6.36 90.3114 6.36C90.3647 6.36 90.4047 6.41333 90.4314 6.52C90.4581 6.6 90.4714 6.66667 90.4714 6.72H90.3914L90.2314 6.56C90.2047 6.58667 90.1914 6.62667 90.1914 6.68C90.1914 6.76 90.2181 6.84 90.2714 6.92C90.3514 6.97333 90.4181 6.98667 90.4714 6.96L90.5514 7.6L90.4714 7.52L90.3914 7.68L89.8314 10.4C89.6447 10.2667 89.5781 10.2933 89.6314 10.48C89.6847 10.64 89.7247 10.6667 89.7514 10.56L89.5114 11.28L89.3114 11.2C89.2314 11.44 89.1114 11.7733 88.9514 12.2C88.7914 12.6 88.5914 12.8267 88.3514 12.88C88.3514 13.2267 88.2314 13.5867 87.9914 13.96C87.7781 14.3067 87.5114 14.5733 87.1914 14.76L87.1114 14.64L86.7114 15.16L86.6314 15.08L86.5514 15.36L86.7914 15.48H86.7114L86.0714 16L86.2714 16.12L85.0314 17.48L84.7114 17.36V17.88L84.0714 18.52H83.8314L83.9114 18.64L82.7114 19.88L82.5514 19.8L82.0714 21.24H81.7914C81.8181 21.2933 81.8314 21.4 81.8314 21.56C81.8314 21.9067 81.7647 22.3733 81.6314 22.96C81.4981 23.52 81.3781 23.88 81.2714 24.04L81.1914 23.72C81.1914 24.4133 81.0047 25.0267 80.6314 25.56L80.7114 25.96L80.3114 26.92C80.2847 26.8667 80.2181 26.8667 80.1114 26.92C80.0047 26.9733 79.9647 27.0267 79.9914 27.08C80.0181 27.1867 80.0581 27.2 80.1114 27.12C80.1647 27.0133 80.2047 26.9733 80.2314 27V27.24C80.2047 27.2667 80.1247 27.28 79.9914 27.28C79.8581 27.2533 79.7647 27.2667 79.7114 27.32C79.6581 27.3733 79.6314 27.4267 79.6314 27.48C79.6314 27.56 79.6847 27.6267 79.7914 27.68C79.8981 27.7067 79.9647 27.7467 79.9914 27.8C79.7514 28.3867 79.4714 28.92 79.1514 29.4C78.8314 29.88 78.6047 30.4267 78.4714 31.04C79.0047 31.1467 79.5114 31.3333 79.9914 31.6C80.4714 31.8667 80.9781 32.0667 81.5114 32.2C81.4581 32.2 81.4314 32.2267 81.4314 32.28C81.4314 32.3333 81.4581 32.3867 81.5114 32.44C81.5914 32.52 81.6447 32.5467 81.6714 32.52L81.7514 32.32L82.7914 32.72L82.8714 32.92L84.2314 33.24V33.44C84.2847 33.4667 84.3514 33.4533 84.4314 33.4C84.5381 33.3733 84.6047 33.3867 84.6314 33.44C84.6847 33.4667 84.7247 33.52 84.7514 33.6C84.8047 33.68 84.8447 33.7333 84.8714 33.76H84.9114C84.9647 33.76 85.0314 33.7333 85.1114 33.68C85.1914 33.6267 85.2447 33.6267 85.2714 33.68L85.3514 33.88C85.4847 33.9333 85.5914 33.9733 85.6714 34C85.7514 34.0267 85.8314 33.9867 85.9114 33.88L86.2714 34.28L86.8714 34.4L86.7914 34.48L87.6314 34.84L88.5514 34.8V35.04C89.0047 35.2267 89.5647 35.3467 90.2314 35.4C90.9247 35.48 91.5247 35.56 92.0314 35.64C92.0314 35.6667 92.0581 35.76 92.1114 35.92C92.1647 36.08 92.2047 36.1333 92.2314 36.08L92.5514 35.64H93.7914C93.8447 35.48 93.8714 35.3333 93.8714 35.2C93.8714 34.7467 93.7514 34.3067 93.5114 33.88H93.1914V33.44C93.0581 33.52 92.9381 33.4533 92.8314 33.24C92.7514 33.0533 92.6714 32.8533 92.5914 32.64C92.5114 32.4533 92.3914 32.44 92.2314 32.6L91.8314 31.88C91.8047 31.9067 91.7647 31.92 91.7114 31.92C91.5781 31.92 91.5114 31.8533 91.5114 31.72C91.5114 31.5867 91.4847 31.5067 91.4314 31.48L91.1914 31.68L91.1114 31.48L91.2714 31.36L91.0714 31.24H91.7914V31.48L92.3514 31.56C92.2981 31.6667 92.2714 31.72 92.2714 31.72C92.2714 31.7733 92.3247 31.8 92.4314 31.8C92.6714 31.8 92.8181 31.7733 92.8714 31.72L94.7514 33.36C94.7781 33.3867 94.8181 33.48 94.8714 33.64C94.9247 33.8267 95.0181 33.8667 95.1514 33.76L95.0714 34.28H95.2714L95.2314 34.4C95.2314 34.4267 95.2314 34.4667 95.2314 34.52C95.2581 34.5733 95.2714 34.6267 95.2714 34.68C95.2714 34.9733 95.1647 35.2533 94.9514 35.52C95.0047 35.5467 95.0581 35.4933 95.1114 35.36C95.1647 35.2533 95.2047 35.2133 95.2314 35.24C95.2314 35.2667 95.2047 35.3867 95.1514 35.6C95.1247 35.8133 95.0314 35.8667 94.8714 35.76ZM83.3114 14.96C83.3114 15.3867 83.2314 15.88 83.0714 16.44C82.9114 16.9733 82.8181 17.4267 82.7914 17.8H83.0314V17.48C83.2181 17.3467 83.4047 17.1333 83.5914 16.84C83.8047 16.5467 84.0181 16.2667 84.2314 16C84.4447 15.7067 84.6314 15.56 84.7914 15.56C84.7914 15.3467 84.8714 15.1867 85.0314 15.08V14.96L85.1914 15.08V14.96C85.3247 14.8 85.4847 14.5733 85.6714 14.28C85.8581 13.96 85.9647 13.7067 85.9914 13.52H86.2714C86.2181 13.4133 86.1914 13.3467 86.1914 13.32C86.1914 13.1867 86.2581 13.08 86.3914 13C86.5514 12.92 86.6847 12.8533 86.7914 12.8L86.7114 12.44L87.0314 11.84H87.1914C87.2447 11.7867 87.2314 11.7467 87.1514 11.72C87.0981 11.6667 87.1114 11.6 87.1914 11.52H87.4314V11.12H87.5914C87.7247 11.12 87.8447 11.1067 87.9514 11.08C87.8447 10.9467 87.7914 10.7867 87.7914 10.6C87.7914 10.36 87.8847 10.1067 88.0714 9.84C88.0714 9.52 88.1514 9.16 88.3114 8.76C88.4714 8.36 88.5514 7.81333 88.5514 7.12H88.9914L88.8714 6.72C88.7647 6.69333 88.7114 6.70667 88.7114 6.76C88.7381 6.78667 88.7381 6.85333 88.7114 6.96H88.6714L88.4714 6.16L88.6714 5.92V5.84L88.3514 5.6L88.3914 5.36L88.0714 5.2L87.9914 4.72C87.9647 4.69333 87.8581 4.62666 87.6714 4.52C87.4847 4.38666 87.3247 4.25333 87.1914 4.12C87.0581 3.98666 87.0314 3.89333 87.1114 3.84C87.0847 3.84 86.9647 3.81333 86.7514 3.76C86.5647 3.70667 86.4047 3.64 86.2714 3.56C86.1381 3.48 86.1381 3.41333 86.2714 3.36C86.2447 3.36 86.2181 3.36 86.1914 3.36C86.1914 3.33333 86.1647 3.32 86.1114 3.32L85.8314 3.36H85.7514C85.5647 3.36 85.4047 3.2 85.2714 2.88H85.1914C85.1381 3.38667 85.0714 3.88 84.9914 4.36C84.9381 4.84 84.8447 5.33333 84.7114 5.84L84.9514 5.92C84.8447 6.08 84.7381 6.38666 84.6314 6.84C84.5514 7.29333 84.5247 7.62667 84.5514 7.84L84.3114 7.92H84.5514C84.5514 8.21333 84.5247 8.50667 84.4714 8.8C84.4181 9.09333 84.3647 9.38667 84.3114 9.68L84.0714 9.76C84.1781 9.78667 84.2314 9.8 84.2314 9.8C84.2314 9.77333 84.2581 9.81333 84.3114 9.92L84.1514 10.64H83.9114C83.9914 10.8267 84.0314 11.0533 84.0314 11.32C84.0314 11.8267 83.8847 12.2667 83.5914 12.64C83.6181 12.72 83.6314 12.8 83.6314 12.88C83.6581 12.96 83.6714 13.04 83.6714 13.12C83.6714 13.36 83.6314 13.5733 83.5514 13.76C83.4714 13.9467 83.4314 14.1733 83.4314 14.44C83.3514 14.44 83.2981 14.48 83.2714 14.56C83.2981 14.64 83.3114 14.7733 83.3114 14.96ZM72.1914 28.56C72.1914 28.5067 72.1514 28.4667 72.0714 28.44C72.0181 28.4133 71.9647 28.4 71.9114 28.4C71.9914 28.48 72.0714 28.56 72.1514 28.64C72.1514 28.6133 72.1514 28.6 72.1514 28.6C72.1781 28.6 72.1914 28.5867 72.1914 28.56ZM96.3483 30.96C96.1883 30.96 95.9616 30.88 95.6683 30.72C95.3749 30.5333 95.1083 30.2933 94.8683 30C94.6549 29.7067 94.5483 29.4 94.5483 29.08C94.5483 28.84 94.6149 28.64 94.7483 28.48C94.7216 28.32 94.6683 28.08 94.5883 27.76C94.5083 27.44 94.5216 27.2133 94.6283 27.08C94.6816 27.08 94.7349 27.04 94.7883 26.96C94.8683 26.88 94.8816 26.8 94.8283 26.72L94.6283 26.52L94.7083 25.44H94.8283C94.8816 25.3333 94.9083 25.2267 94.9083 25.12C94.9083 24.9867 94.8816 24.8533 94.8283 24.72C94.8016 24.5867 94.7616 24.4667 94.7083 24.36H94.7483V24.16C94.7483 23.92 94.7483 23.6933 94.7483 23.48C94.7749 23.2667 94.8016 23.04 94.8283 22.8C94.9349 22.8533 94.9616 22.8267 94.9083 22.72C94.8549 22.6133 94.8283 22.6133 94.8283 22.72C94.7483 22.4267 94.7749 22.0933 94.9083 21.72C95.0416 21.3467 95.1083 21.0133 95.1083 20.72C95.1083 20.5333 95.0683 20.3867 94.9883 20.28C94.9883 20.4133 94.9483 20.56 94.8683 20.72C94.8149 20.88 94.7616 21.0267 94.7083 21.16V20.96H94.6283C94.6283 21.1467 94.5883 21.28 94.5083 21.36L94.7483 21.44C94.4549 21.76 94.3083 22.1867 94.3083 22.72H94.0283L94.1483 23.08L93.6683 23.12L94.1483 23.2C94.0416 23.3333 93.9616 23.48 93.9083 23.64C93.8816 23.8 93.8549 23.9467 93.8283 24.08L93.4283 24.16C93.5083 24.24 93.5483 24.36 93.5483 24.52C93.5483 24.8133 93.4283 25.1467 93.1883 25.52C92.9483 25.8933 92.7483 26.1467 92.5883 26.28C92.6949 26.3333 92.7483 26.48 92.7483 26.72L92.6683 26.8H92.2683C92.3216 26.8267 92.3616 26.9067 92.3883 27.04C92.4416 27.1467 92.4683 27.2267 92.4683 27.28C92.3616 27.3067 92.2816 27.36 92.2283 27.44C92.1749 27.52 92.0949 27.5733 91.9883 27.6C92.0949 27.6 92.1883 27.68 92.2683 27.84C92.1616 28 92.0149 28.32 91.8283 28.8C91.6416 29.2533 91.4416 29.52 91.2283 29.6L90.9483 29.24C90.9216 29.4267 90.8016 29.5333 90.5883 29.56C90.3749 29.5867 90.1883 29.6 90.0283 29.6C89.8149 29.3333 89.5749 29.1467 89.3083 29.04C89.0683 28.9333 88.8683 28.8 88.7083 28.64C88.5483 28.4533 88.4683 28.1333 88.4683 27.68C88.5216 27.6267 88.5616 27.4533 88.5883 27.16C88.6149 26.8667 88.6283 26.5467 88.6283 26.2C88.6283 25.8 88.6149 25.4 88.5883 25C88.5883 24.6 88.5883 24.32 88.5883 24.16H88.6283C88.7616 24.16 88.8283 24.0533 88.8283 23.84C88.8283 23.7067 88.8149 23.5333 88.7883 23.32C88.7616 23.1067 88.7483 22.9067 88.7483 22.72C88.7483 22.5067 88.7749 22.32 88.8283 22.16C88.8816 21.9733 88.9883 21.8267 89.1483 21.72L88.9883 21.36L89.1883 20.64L89.0683 20.36L89.4683 18.4C89.3616 18.32 89.3083 18.2533 89.3083 18.2C89.3083 18.1467 89.3216 18.0933 89.3483 18.04C89.3749 17.9867 89.3883 17.92 89.3883 17.84L89.6283 17.72L89.3883 17.56C89.5483 17.4 89.6283 17.0533 89.6283 16.52C89.6283 16.12 89.5749 15.72 89.4683 15.32C89.3883 14.8933 89.2549 14.6267 89.0683 14.52C88.7749 14.36 88.4283 14.2667 88.0283 14.24C87.6549 14.1867 87.2816 14.1467 86.9083 14.12C86.9083 14.0133 86.9349 13.9467 86.9883 13.92C87.0416 13.8667 87.0149 13.84 86.9083 13.84C87.0683 13.68 87.2683 13.5733 87.5083 13.52C87.6683 13.36 87.8949 13.28 88.1883 13.28C88.4016 13.28 88.6016 13.3067 88.7883 13.36C89.0016 13.4133 89.1616 13.4667 89.2683 13.52C89.3216 13.2 89.5349 13.04 89.9083 13.04C90.2816 13.04 90.5883 13.04 90.8283 13.04C90.8816 13.2 91.0016 13.2933 91.1883 13.32C91.4016 13.3467 91.5749 13.3467 91.7083 13.32C91.7349 13.5867 91.7883 13.7867 91.8683 13.92C91.9483 14.0267 91.9883 14.1467 91.9883 14.28C91.9883 14.4133 91.8949 14.6533 91.7083 15L91.8683 15.12L91.7083 16L91.5083 16.08H91.7083C91.7083 16.3467 91.6549 16.6133 91.5483 16.88C91.4683 17.12 91.4283 17.3467 91.4283 17.56L91.5883 17.84L91.5083 18.44C91.4816 18.4667 91.4283 18.44 91.3483 18.36C91.2683 18.28 91.2283 18.2667 91.2283 18.32V18.52L91.4283 18.8L91.1883 18.88L91.4283 19L90.9483 20.84L91.1883 20.92L91.1083 21.72L90.6283 21.64C90.6016 21.72 90.6016 21.7867 90.6283 21.84C90.6816 21.8933 90.7216 21.92 90.7483 21.92H90.7883C90.8683 21.92 90.9083 21.9867 90.9083 22.12C90.9349 22.2267 90.9483 22.32 90.9483 22.4C90.9216 22.48 90.8949 22.56 90.8683 22.64C90.8683 22.72 90.8683 22.8 90.8683 22.88C90.8683 22.9867 90.8683 23.1067 90.8683 23.24C90.8949 23.3733 90.9083 23.5067 90.9083 23.64C90.9083 23.7733 90.8816 23.92 90.8283 24.08L90.7083 24.16L90.7483 24.48C90.5349 24.64 90.4283 24.8533 90.4283 25.12C90.5616 25.1467 90.6283 25.24 90.6283 25.4C90.6283 25.5067 90.6016 25.6133 90.5483 25.72C90.5216 25.8267 90.4816 25.92 90.4283 26C90.5616 26.24 90.6416 26.4933 90.6683 26.76C90.7216 27 90.7749 27.2667 90.8283 27.56C90.8816 27.56 90.9483 27.56 91.0283 27.56C91.1349 27.5333 91.2016 27.48 91.2283 27.4C91.2816 27.2933 91.4149 27.04 91.6283 26.64C91.8416 26.24 92.0549 25.8533 92.2683 25.48C92.5083 25.1067 92.6683 24.92 92.7483 24.92L92.5883 24.68H92.9883L92.5883 24.44L93.0683 24.04C93.0416 23.9067 93.0283 23.8 93.0283 23.72C93.0283 23.64 93.0283 23.5733 93.0283 23.52C93.0283 23.2267 93.0816 23.0267 93.1883 22.92C93.2949 22.8133 93.3749 22.5867 93.4283 22.24H93.6683C93.8016 22.08 93.8549 21.8267 93.8283 21.48C93.8283 21.1333 93.8549 20.7733 93.9083 20.4C93.9616 20 94.1616 19.6933 94.5083 19.48L94.4283 18.88H94.7483L94.5083 18.68L94.6683 18.56C94.6416 18.56 94.6416 18.5333 94.6683 18.48C94.7216 18.4 94.7483 18.3867 94.7483 18.44L94.9083 18.24C94.8549 18.2133 94.8549 18.04 94.9083 17.72C94.9616 17.3733 95.0416 16.9867 95.1483 16.56C95.2549 16.1067 95.3483 15.6933 95.4283 15.32C95.5083 14.92 95.5616 14.6533 95.5883 14.52L95.7083 14.44C96.1883 14.4667 96.4949 14.5333 96.6283 14.64C96.7616 14.72 96.8416 14.8133 96.8683 14.92C96.9216 15 97.0416 15.0533 97.2283 15.08C97.3349 15.1867 97.4416 15.32 97.5483 15.48C97.6549 15.6133 97.7483 15.7733 97.8283 15.96C97.6949 16.0667 97.6283 16.2133 97.6283 16.4C97.6283 16.5067 97.6283 16.6133 97.6283 16.72C97.6549 16.8 97.6683 16.8933 97.6683 17C97.6683 17.1333 97.6549 17.24 97.6283 17.32L97.4283 17.36C97.4816 17.52 97.5083 17.64 97.5083 17.72C97.5083 17.8267 97.4949 17.9333 97.4683 18.04C97.4683 18.12 97.4549 18.2133 97.4283 18.32L97.2283 18.4H97.1483C97.1483 18.4267 97.1883 18.4533 97.2683 18.48C97.3749 18.5067 97.4283 18.52 97.4283 18.52C97.3749 18.6267 97.3349 18.7333 97.3083 18.84C97.3083 18.9467 97.3083 19.0533 97.3083 19.16V19.56C97.3083 19.6667 97.3083 19.7733 97.3083 19.88C97.3083 19.96 97.2816 20.0533 97.2283 20.16L96.9883 20.36C97.0149 20.4133 97.0283 20.5867 97.0283 20.88C97.0283 21.2267 97.0016 21.6667 96.9483 22.2C96.9216 22.7333 96.8816 23.28 96.8283 23.84C96.7749 24.3733 96.7083 24.8533 96.6283 25.28C96.5749 25.68 96.5216 25.92 96.4683 26C96.6549 26.2667 96.7483 26.5733 96.7483 26.92C96.7483 27.0267 96.7349 27.1467 96.7083 27.28C96.7083 27.4133 96.6949 27.5467 96.6683 27.68C96.9083 27.8133 97.0416 27.9467 97.0683 28.08C97.1216 28.1867 97.3216 28.24 97.6683 28.24V28.64C97.8016 28.64 97.8683 28.5867 97.8683 28.48C97.8683 28.4267 97.8283 28.3733 97.7483 28.32C97.6949 28.24 97.6549 28.16 97.6283 28.08L98.3083 27.88C98.3349 27.72 98.3883 27.5333 98.4683 27.32C98.5749 27.1067 98.6283 26.9333 98.6283 26.8L98.9083 26.72L98.9883 26.12L99.2283 26.28C99.2016 26.12 99.1883 25.96 99.1883 25.8C99.4816 25.56 99.6949 25.24 99.8283 24.84C99.9616 24.44 100.175 24.12 100.468 23.88L100.388 23.56H100.668L101.068 23.12C101.015 23.0933 100.962 23.04 100.908 22.96C100.855 22.88 100.842 22.8267 100.868 22.8L101.428 22.72V22.88C101.535 22.9867 101.482 23.1867 101.268 23.48C101.055 23.7733 100.922 23.96 100.868 24.04C100.948 24.1467 100.988 24.2533 100.988 24.36C100.988 24.4667 100.948 24.5467 100.868 24.6C100.788 24.6533 100.682 24.7333 100.548 24.84L100.668 24.96C100.642 25.04 100.548 25.24 100.388 25.56C100.228 25.88 100.042 26.24 99.8283 26.64C99.6416 27.04 99.4683 27.3867 99.3083 27.68C99.1749 27.9733 99.1083 28.1333 99.1083 28.16H98.7883V28.76C98.7883 29 98.6549 29.2933 98.3883 29.64C98.1216 29.9867 97.8016 30.2933 97.4283 30.56C97.0549 30.8267 96.6949 30.96 96.3483 30.96ZM105.585 31.6C105.425 31.76 105.145 31.8267 104.745 31.8C104.372 31.8 104.065 31.8 103.825 31.8L103.905 31.6H103.745C103.692 31.6 103.638 31.5867 103.585 31.56C103.532 31.56 103.465 31.5467 103.385 31.52V31.64C103.198 31.64 103.012 31.6 102.825 31.52C102.665 31.4667 102.492 31.4267 102.305 31.4L102.425 31.28L102.105 31.2C102.132 31.2267 102.105 31.2133 102.025 31.16C101.972 31.1333 101.985 31.1333 102.065 31.16C101.932 31.1067 101.772 31.04 101.585 30.96C101.398 30.8533 101.265 30.72 101.185 30.56L101.225 30.44L101.025 30.52L100.745 30.08H100.585C100.612 29.9733 100.532 29.8667 100.345 29.76C100.185 29.6267 100.185 29.52 100.345 29.44C100.078 29.3067 99.9185 29.0933 99.8652 28.8C99.8118 28.48 99.7852 28.16 99.7852 27.84C99.8118 27.4933 99.7852 27.2 99.7052 26.96L99.9052 26.56L100.025 26.52C99.9718 26.36 99.9318 26.2 99.9052 26.04C99.9052 25.88 99.9052 25.72 99.9052 25.56L100.345 25.28C100.238 25.1733 100.185 25.04 100.185 24.88C100.185 24.7467 100.198 24.6133 100.225 24.48C100.278 24.32 100.318 24.1867 100.345 24.08H100.545V23.6L100.625 23.68L100.665 23.24C100.718 23.2667 100.772 23.24 100.825 23.16C100.878 23.08 100.878 23.0267 100.825 23C100.878 22.84 100.958 22.6667 101.065 22.48C101.172 22.2667 101.305 22.1333 101.465 22.08C101.385 22.08 101.332 22.04 101.305 21.96C101.278 21.88 101.318 21.8267 101.425 21.8L101.545 21.88L101.705 21.6C101.732 21.5467 101.732 21.52 101.705 21.52H101.865V21.4C101.892 21.4 101.932 21.4133 101.985 21.44C102.038 21.44 102.065 21.4267 102.065 21.4C102.038 21.2667 101.958 21.2133 101.825 21.24C101.692 21.2667 101.732 21.2267 101.945 21.12L102.105 20.8C102.158 20.8 102.185 20.8267 102.185 20.88C102.185 20.9067 102.198 20.9333 102.225 20.96C102.225 20.9867 102.238 20.9867 102.265 20.96C102.318 20.9067 102.345 20.8667 102.345 20.84L102.265 20.72H102.105V20.68C102.212 20.6267 102.292 20.5333 102.345 20.4C102.425 20.2667 102.505 20.1467 102.585 20.04L102.825 20.2L102.865 20.04C102.865 20.0133 102.852 20 102.825 20C102.825 19.9733 102.825 19.9467 102.825 19.92C102.825 19.7333 102.932 19.6667 103.145 19.72C103.172 19.6933 103.158 19.6667 103.105 19.64C103.052 19.6133 103.025 19.5867 103.025 19.56C103.265 19.2667 103.585 19 103.985 18.76L103.825 18.68C103.878 18.44 104.012 18.2933 104.225 18.24C104.438 18.1867 104.625 18.12 104.785 18.04L104.665 18L104.865 17.6C104.945 17.68 105.012 17.6933 105.065 17.64C105.145 17.5867 105.145 17.5067 105.065 17.4L105.385 17.12L105.625 17.24C105.652 17.0267 105.785 16.8133 106.025 16.6C106.292 16.3867 106.572 16.2133 106.865 16.08C107.185 15.92 107.438 15.8267 107.625 15.8V15.52H107.745L107.785 15.68L108.145 15.32L108.425 15.44L109.145 14.8L109.185 14.96C109.212 14.8267 109.345 14.72 109.585 14.64C109.825 14.5333 110.092 14.4533 110.385 14.4C110.678 14.3467 110.878 14.32 110.985 14.32L111.025 14.4C111.078 14.1867 111.238 14.0667 111.505 14.04C111.798 13.9867 112.038 13.96 112.225 13.96C112.198 13.9867 112.185 14.0133 112.185 14.04C112.185 14.0933 112.238 14.1333 112.345 14.16C112.452 14.16 112.505 14.0933 112.505 13.96L112.745 13.92L112.865 14.08L113.305 13.92C113.358 14 113.398 14.04 113.425 14.04C113.505 14.04 113.585 14.0133 113.665 13.96C113.772 13.88 113.878 13.88 113.985 13.96C113.932 13.96 113.905 14 113.905 14.08C113.905 14.16 113.945 14.2 114.025 14.2L114.265 14L114.345 14.04L114.465 14.32L114.745 14.12C114.692 14.1733 114.705 14.2267 114.785 14.28C114.865 14.3067 114.905 14.28 114.905 14.2C114.932 14.36 115.025 14.4667 115.185 14.52C115.372 14.5733 115.518 14.64 115.625 14.72C115.758 14.7733 115.758 14.9333 115.625 15.2L115.265 15.92L115.145 15.84L115.225 16.24L114.865 16.68L114.945 16.96L114.665 17L114.785 17.2L114.825 17V17.28L114.625 17.4L114.585 17.32L114.465 17.72L114.545 17.96C114.518 17.96 114.452 18.1067 114.345 18.4C114.238 18.6667 114.132 18.8533 114.025 18.96L114.185 19.2C114.105 19.3333 114.025 19.4533 113.945 19.56C113.865 19.6667 113.812 19.8 113.785 19.96L113.985 20L113.785 21.12L113.625 21.28L113.105 21.04C113.025 20.88 113.025 20.76 113.105 20.68C112.705 20.5733 112.532 20.2933 112.585 19.84L112.505 19.92C112.558 19.76 112.585 19.64 112.585 19.56C112.585 19.5067 112.558 19.4 112.505 19.24L112.385 19.36C112.385 19.2 112.385 18.9733 112.385 18.68C112.412 18.36 112.452 18.0667 112.505 17.8C112.558 17.5067 112.638 17.32 112.745 17.24C112.798 17.2667 112.865 17.2667 112.945 17.24C113.052 17.2133 113.092 17.16 113.065 17.08L112.865 16.84L113.105 16.6L112.945 16.52C112.945 16.5467 112.998 16.56 113.105 16.56C113.105 16.24 113.185 15.9467 113.345 15.68C113.505 15.4133 113.598 15.12 113.625 14.8H112.985C113.012 14.7467 112.985 14.68 112.905 14.6C112.852 14.52 112.798 14.52 112.745 14.6V14.84C112.558 14.84 112.372 14.88 112.185 14.96C112.025 15.0133 111.878 15.0667 111.745 15.12V15.04L111.945 14.88C111.732 14.9867 111.532 15.1067 111.345 15.24C111.185 15.3733 110.972 15.4133 110.705 15.36C110.678 15.3867 110.692 15.4133 110.745 15.44C110.825 15.44 110.838 15.4533 110.785 15.48L110.305 15.76V15.92L108.585 16.88L108.825 16.92L108.785 17C108.518 17.0267 108.252 17.1733 107.985 17.44C107.745 17.68 107.505 17.9467 107.265 18.24C107.052 18.5067 106.798 18.6933 106.505 18.8C106.158 19.2 105.812 19.6267 105.465 20.08C105.145 20.5333 104.838 20.9867 104.545 21.44L104.665 21.56L104.465 21.84C104.412 21.7867 104.372 21.7733 104.345 21.8C104.318 21.8267 104.345 21.8533 104.425 21.88C104.398 22.1467 104.238 22.28 103.945 22.28C103.972 22.44 103.905 22.6533 103.745 22.92C103.585 23.16 103.438 23.3467 103.305 23.48C103.198 23.6133 103.198 23.6267 103.305 23.52L103.345 23.48C103.398 23.48 103.438 23.5333 103.465 23.64C103.492 23.72 103.465 23.7867 103.385 23.84H103.145C103.145 24.08 103.105 24.2933 103.025 24.48C102.972 24.6667 102.918 24.8667 102.865 25.08C102.838 25.08 102.798 25.08 102.745 25.08C102.692 25.08 102.652 25.1067 102.625 25.16L102.465 26.32L102.225 26.4L102.465 26.76L102.305 27.08H102.265V26.92H102.185C102.132 27.0267 102.132 27.0933 102.185 27.12C102.265 27.1467 102.318 27.1467 102.345 27.12V27.4L102.105 27.48L102.145 28.12C102.145 28.12 102.158 28.1333 102.185 28.16H102.145V28.4C102.145 28.4533 102.158 28.6133 102.185 28.88C102.238 29.12 102.292 29.3467 102.345 29.56C102.425 29.7467 102.518 29.7733 102.625 29.64L102.865 29.96V30.28L102.945 30.12C103.105 30.2533 103.278 30.3867 103.465 30.52C103.652 30.6267 103.852 30.7067 104.065 30.76L103.945 31C103.998 31.0267 104.038 31.0133 104.065 30.96C104.118 30.88 104.145 30.8267 104.145 30.8H104.665C104.718 30.9067 104.825 30.9733 104.985 31C105.172 31.0533 105.318 31.08 105.425 31.08V30.84C105.612 30.84 105.772 30.84 105.905 30.84C106.065 30.8133 106.238 30.8 106.425 30.8C106.505 30.8 106.585 30.8 106.665 30.8C106.772 30.8 106.878 30.8133 106.985 30.84V30.72L107.265 30.76C107.158 30.76 107.105 30.7733 107.105 30.8L107.625 30.72V30.48H107.785C107.892 30.48 107.998 30.4667 108.105 30.44C108.212 30.3867 108.332 30.3467 108.465 30.32L108.545 30.44C108.625 30.2267 108.825 30.12 109.145 30.12L109.065 30.08H109.185L109.265 30.24V30.04L109.665 30.28C109.718 30.2 109.745 30.12 109.745 30.04C109.745 29.96 109.758 29.8667 109.785 29.76L110.145 29.88V29.72C110.332 29.5333 110.585 29.4133 110.905 29.36V29.32C111.038 29.24 111.185 29.16 111.345 29.08C111.505 29 111.665 28.9733 111.825 29L111.865 28.68C111.998 28.68 112.092 28.6533 112.145 28.6C112.225 28.52 112.318 28.48 112.425 28.48V28.6C112.478 28.5733 112.518 28.52 112.545 28.44C112.598 28.36 112.678 28.3467 112.785 28.4L112.505 28.28L112.985 28.12L113.305 27.76H113.625L113.545 27.48H113.705L113.665 27.4L114.065 27.32L114.025 27.16L114.385 27.12C114.438 26.9867 114.492 26.8667 114.545 26.76C114.598 26.6267 114.678 26.5067 114.785 26.4L114.945 26.44L114.985 26.08H115.265L115.465 25.64L115.665 25.76C115.692 25.6533 115.665 25.56 115.585 25.48L115.905 25.08C115.958 25.08 115.985 25.12 115.985 25.2L115.945 25.28C115.998 25.28 116.065 25.2667 116.145 25.24C116.225 25.2133 116.225 25.28 116.145 25.44C116.145 25.4667 116.078 25.52 115.945 25.6C115.838 25.6533 115.825 25.72 115.905 25.8C115.958 25.8533 116.012 25.8267 116.065 25.72V25.68C116.065 25.68 116.065 25.6933 116.065 25.72L115.865 26.28H115.545V26.68C115.518 26.7333 115.425 26.7733 115.265 26.8C115.132 26.8 115.145 26.8667 115.305 27C115.145 27.08 115.052 27.1733 115.025 27.28C114.998 27.3867 114.945 27.48 114.865 27.56C114.812 27.64 114.638 27.7067 114.345 27.76L114.505 27.92C114.505 27.9467 114.478 28 114.425 28.08C114.372 28.1333 114.345 28.1467 114.345 28.12L114.265 27.92L114.225 28.04L114.185 28.28C113.998 28.28 113.825 28.4 113.665 28.64C113.505 28.88 113.358 28.9867 113.225 28.96L112.865 29.36C112.785 29.36 112.665 29.4267 112.505 29.56C112.345 29.6933 112.145 29.7733 111.905 29.8L111.585 30.12L111.265 30.04L111.145 30.32L110.425 30.64L110.145 30.52L110.065 30.8L109.265 31.12L109.185 30.92C108.972 31.0267 108.772 31.1333 108.585 31.24C108.398 31.3733 108.172 31.4533 107.905 31.48C107.878 31.4533 107.892 31.4133 107.945 31.36C108.025 31.3333 108.052 31.3067 108.025 31.28L107.825 31.2L107.745 31.56L107.065 31.52L107.105 31.64C106.892 31.6933 106.705 31.72 106.545 31.72C106.358 31.72 106.198 31.6667 106.065 31.56L106.145 31.8H105.625L105.585 31.6ZM101.585 21.52C101.532 21.5467 101.532 21.5467 101.585 21.52C101.665 21.4933 101.705 21.4933 101.705 21.52H101.585ZM102.225 28.4C102.198 28.4 102.198 28.3333 102.225 28.2C102.198 28.1733 102.185 28.16 102.185 28.16C102.212 28.1333 102.225 28.1467 102.225 28.2C102.278 28.2533 102.278 28.32 102.225 28.4ZM125.944 29.36C125.757 29.3867 125.531 29.3067 125.264 29.12C124.997 28.9067 124.811 28.7333 124.704 28.6L124.744 28.24C124.717 28.24 124.691 28.2533 124.664 28.28C124.637 28.3067 124.611 28.32 124.584 28.32L124.744 27.32C124.797 27.32 124.811 27.2533 124.784 27.12C124.784 26.9867 124.784 26.9067 124.784 26.88L124.744 26.84L124.784 26.16H124.944L124.744 25.96L124.824 25.36L124.904 25.32L124.824 25.2L124.904 24.76L125.064 24.68C125.064 24.6267 125.037 24.5733 124.984 24.52C124.957 24.44 124.944 24.3733 124.944 24.32C124.944 24.2133 125.037 24.0667 125.224 23.88L125.064 23.8L125.304 23.6L125.104 23.52C125.237 23.4133 125.264 23.32 125.184 23.24C125.131 23.1333 125.144 23.0267 125.224 22.92L125.504 22.52L125.304 22.32L125.344 22.08C125.477 22.08 125.544 22.04 125.544 21.96C125.544 21.9067 125.531 21.84 125.504 21.76C125.477 21.68 125.464 21.6 125.464 21.52H125.504L125.544 21.6L125.664 20.8L125.744 20.76V20.16H125.944L125.824 19.72L125.784 19.76L124.944 21.12L124.704 21.16L124.384 21.6L124.584 21.68L124.464 21.88H124.144C124.197 21.9867 124.224 22.0667 124.224 22.12C124.224 22.2267 124.157 22.32 124.024 22.4C123.891 22.4533 123.797 22.4933 123.744 22.52L123.824 22.76L123.504 23.28L123.304 23.2C123.304 23.2 123.291 23.2267 123.264 23.28C123.264 23.3333 123.237 23.36 123.184 23.36L122.984 23.28L122.904 23.6L123.104 23.64C122.997 23.7467 122.917 23.84 122.864 23.92C122.811 24 122.677 24.04 122.464 24.04C122.437 24.12 122.464 24.2 122.544 24.28C122.331 24.5733 122.091 24.8667 121.824 25.16C121.584 25.4533 121.317 25.7067 121.024 25.92H120.904L120.584 26.24L120.424 26.16L120.344 26.44L119.584 26.76L119.504 26.96L119.224 26.88L119.064 27.12H118.904C118.264 27.12 117.731 26.9467 117.304 26.6C117.224 26.44 117.184 26.2533 117.184 26.04C117.131 26.04 117.091 26.0667 117.064 26.12C117.037 26.1467 117.011 26.1733 116.984 26.2L116.744 25.2L116.864 24.96L116.784 24.88L116.824 24.56H116.944L117.264 23.12C117.291 23.12 117.304 23.1333 117.304 23.16C117.331 23.1867 117.357 23.2 117.384 23.2C117.437 23.2 117.464 23.16 117.464 23.08C117.464 23 117.451 22.9467 117.424 22.92L117.344 22.96C117.397 22.56 117.597 22.2667 117.944 22.08C117.891 22.0267 117.864 21.96 117.864 21.88C117.864 21.8 117.877 21.7333 117.904 21.68C117.957 21.6 117.997 21.52 118.024 21.44L118.144 21.48V21.44L118.104 21.36L118.264 21.28C118.291 21.28 118.277 21.24 118.224 21.16C118.197 21.08 118.237 21.0933 118.344 21.2V20.92H118.584C118.664 20.8133 118.731 20.6933 118.784 20.56C118.837 20.4267 118.891 20.2933 118.944 20.16H119.344L119.224 19.88L119.424 19.64L119.664 19.72L119.784 19.2L120.424 18.72L120.224 18.6L120.464 18.52L120.504 18.76C120.504 18.4667 120.624 18.2533 120.864 18.12H120.904L120.944 18.32L120.984 18.24L120.944 18.04L121.384 17.72L121.424 17.88C121.451 17.6133 121.597 17.4133 121.864 17.28C122.131 17.12 122.411 16.9733 122.704 16.84C122.997 16.7067 123.157 16.56 123.184 16.4L123.504 16.44C123.531 16.4133 123.544 16.3733 123.544 16.32C123.571 16.24 123.557 16.2 123.504 16.2C123.771 16.1733 124.077 16.08 124.424 15.92H124.824L124.624 15.8L124.664 15.76C125.144 15.6267 125.637 15.56 126.144 15.56C126.491 15.56 126.811 15.6667 127.104 15.88L127.904 16.2C127.931 16.2267 127.904 16.24 127.824 16.24C127.771 16.24 127.744 16.2667 127.744 16.32C127.744 16.3467 127.784 16.3867 127.864 16.44C127.944 16.4667 128.011 16.48 128.064 16.48L128.104 16.36C128.131 16.36 128.144 16.4133 128.144 16.52C128.171 16.6 128.197 16.6133 128.224 16.56L128.544 16.88H128.384L128.304 18.04H128.144L128.064 18.24L128.184 18.52C128.184 18.5467 128.171 18.6 128.144 18.68C128.117 18.7333 128.104 18.72 128.104 18.64V18.56L127.984 18.6C128.011 18.6533 128.024 18.7333 128.024 18.84C128.024 18.92 128.011 19.0133 127.984 19.12C127.984 19.2 127.971 19.2933 127.944 19.4C127.837 19.4 127.771 19.4133 127.744 19.44L127.624 19.76C127.597 19.8667 127.611 19.9333 127.664 19.96C127.717 19.96 127.744 19.9733 127.744 20L127.664 20.16C127.664 20.2667 127.664 20.3733 127.664 20.48C127.691 20.5867 127.691 20.7067 127.664 20.84H127.344L126.904 20.88C127.011 21.04 127.131 21.1733 127.264 21.28C127.397 21.36 127.464 21.4 127.464 21.4C127.517 21.4533 127.531 21.5067 127.504 21.56C127.451 21.6933 127.397 21.8267 127.344 21.96C127.291 22.0933 127.237 22.2267 127.184 22.36L127.304 22.4C127.331 22.4267 127.317 22.44 127.264 22.44C127.237 22.44 127.237 22.4533 127.264 22.48L127.304 22.52C127.331 22.5467 127.344 22.5867 127.344 22.64C127.344 22.7467 127.304 22.8533 127.224 22.96C127.144 23.0667 127.077 23.1867 127.024 23.32H127.144C127.144 23.5333 127.131 23.8267 127.104 24.2C127.077 24.5467 126.997 24.8 126.864 24.96H126.824V24.76H126.624L126.904 25.16C126.797 25.5067 126.731 25.88 126.704 26.28C126.677 26.6533 126.637 27.0267 126.584 27.4L126.864 27.76H126.904V27.48L127.144 27.32H127.344L127.424 27.6L127.504 27.12C127.504 27.0933 127.504 27.08 127.504 27.08C127.531 27.08 127.544 27.08 127.544 27.08H127.624C127.677 26.8933 127.691 26.76 127.664 26.68C127.824 26.4667 128.011 26.1867 128.224 25.84C128.464 25.4667 128.691 25.1067 128.904 24.76C129.117 24.3867 129.251 24.0933 129.304 23.88C129.357 23.88 129.397 23.9067 129.424 23.96C129.451 24.0133 129.477 24.04 129.504 24.04C129.531 24.04 129.531 23.9867 129.504 23.88C129.504 23.7467 129.477 23.6933 129.424 23.72C129.504 23.6133 129.557 23.4933 129.584 23.36C129.611 23.2 129.677 23.12 129.784 23.12C129.917 23.12 129.984 23.16 129.984 23.24C129.984 23.2933 129.971 23.36 129.944 23.44C129.917 23.4933 129.904 23.5467 129.904 23.6L129.864 24.44L129.624 24.64L129.704 24.68H129.744L129.624 24.76L129.744 24.88H129.624C129.624 25.0133 129.597 25.1467 129.544 25.28C129.517 25.4133 129.477 25.5467 129.424 25.68L129.184 25.76L129.264 25.92L129.064 26.2L128.824 26.24L128.304 27.56L128.064 27.52L128.104 27.84L127.064 29.04L126.864 29L126.824 29.24L126.664 29.36H125.944ZM118.704 25.76H118.784L119.664 25.32C119.717 25.3733 119.731 25.4 119.704 25.4C119.677 25.4 119.664 25.4 119.664 25.4C119.664 25.48 119.691 25.5467 119.744 25.6C119.797 25.6267 119.837 25.64 119.864 25.64L119.784 25.24C119.837 25.08 119.944 25.04 120.104 25.12L120.064 25.2L120.344 25.08H120.144C120.117 25 120.144 24.96 120.224 24.96L120.864 24.8C120.891 24.7733 120.851 24.76 120.744 24.76C120.637 24.7333 120.584 24.7067 120.584 24.68L120.824 24.56C121.037 24.4533 121.211 24.3333 121.344 24.2C121.477 24.0667 121.544 24 121.544 24C121.597 24.08 121.677 24.12 121.784 24.12H121.824V23.6L122.104 23.32L122.264 23.36L122.224 23.16L122.544 23.04C122.597 22.8 122.717 22.6267 122.904 22.52C123.091 22.3867 123.237 22.24 123.344 22.08H123.264C123.317 21.9467 123.424 21.8667 123.584 21.84C123.744 21.7867 123.837 21.68 123.864 21.52L123.784 21.36L124.224 21L124.144 20.96C124.197 20.9067 124.224 20.8533 124.224 20.8C124.251 20.72 124.317 20.6933 124.424 20.72L124.624 20.76V20.36L124.784 20.08H125.104C125.157 19.92 125.104 19.84 124.944 19.84L125.504 19.08L125.744 19.2V19.12L125.504 19.04L125.664 18.8L125.824 18.76L125.864 18.72C125.784 18.72 125.757 18.6933 125.784 18.64C125.811 18.56 125.864 18.5333 125.944 18.56L125.984 18.24L126.184 18.16H126.104L126.184 17.96H126.464L126.384 17.36L126.464 17.28L126.344 17.16C126.291 17.3467 126.157 17.4533 125.944 17.48C125.731 17.5067 125.544 17.52 125.384 17.52C125.437 17.5467 125.451 17.6 125.424 17.68C125.397 17.7333 125.357 17.7467 125.304 17.72L125.064 17.6H124.944L125.064 17.88L124.704 17.8L124.784 17.96H124.584V18.12L124.224 18.36C124.197 18.36 124.077 18.3467 123.864 18.32C123.677 18.2933 123.637 18.3333 123.744 18.44H123.824C123.824 18.5733 123.784 18.6267 123.704 18.6C123.624 18.5733 123.571 18.56 123.544 18.56L123.624 18.6C123.117 18.84 122.664 19.1867 122.264 19.64C122.317 19.6667 122.304 19.7067 122.224 19.76C122.171 19.8133 122.117 19.8 122.064 19.72V19.96L121.984 19.88C121.984 20.0133 121.904 20.1333 121.744 20.24C121.584 20.32 121.437 20.3867 121.304 20.44C121.224 20.6 121.131 20.76 121.024 20.92C120.917 21.08 120.797 21.2 120.664 21.28L120.584 21.24L120.144 21.52V21.64C120.144 21.9067 120.064 22.1467 119.904 22.36C119.771 22.5467 119.624 22.7467 119.464 22.96L119.344 22.84L119.224 23.36H118.944V23.88H118.584C118.557 23.88 118.557 23.9067 118.584 23.96C118.611 24.0133 118.651 24.0533 118.704 24.08C118.677 24.2933 118.611 24.5067 118.504 24.72C118.424 24.9067 118.371 25.1067 118.344 25.32H118.544C118.491 25.5333 118.571 25.6267 118.784 25.6L118.704 25.76ZM118.784 24.12C118.784 24.1467 118.757 24.1333 118.704 24.08V24.04L118.784 24.08V24.12Z" fill="#FFFAFA"/>
</svg>
